<svg width="7" height="17" viewBox="0 0 7 17" fill="none" xmlns="http://www.w3.org/2000/svg">
<g id="Group">
<path id="Vector" d="M2.5983 4.96805V4.96798L2.59563 2.8773H3.64809V4.96805C3.64809 5.55608 4.11118 5.85449 4.5422 6.11492C4.56094 6.12624 4.57962 6.13749 4.59821 6.14869C4.79753 6.26872 4.98725 6.38296 5.13215 6.51746C5.28876 6.66284 5.38803 6.82745 5.38803 7.04286V8.62874H0.85835V7.04286C0.85835 6.82566 0.957739 6.66015 1.11428 6.51448C1.25979 6.37907 1.45053 6.26449 1.6508 6.1442C1.66851 6.13356 1.68629 6.12287 1.70413 6.11213C2.13507 5.85246 2.5983 5.55573 2.5983 4.96805ZM0.283984 7.04286V8.67874V8.68749V8.69627V8.70508V8.71392V8.72279V8.73169V8.74062V8.74958V8.75857V8.76759V8.77664V8.78572V8.79483V8.80397V8.81314V8.82233V8.83156V8.84082V8.8501V8.85942V8.86876V8.87813V8.88753V8.89697V8.90642V8.91591V8.92543V8.93497V8.94455V8.95415V8.96378V8.97344V8.98312V8.99284V9.00258V9.01235V9.02215V9.03197V9.04183V9.05171V9.06162V9.07156V9.08152V9.09151V9.10153V9.11158V9.12165V9.13175V9.14188V9.15203V9.16222V9.17242V9.18266V9.19292V9.20321V9.21352V9.22387V9.23423V9.24463V9.25505V9.2655V9.27597V9.28647V9.29699V9.30754V9.31812V9.32872V9.33935V9.35V9.36068V9.37139V9.38212V9.39287V9.40365V9.41446V9.42529V9.43614V9.44702V9.45793V9.46886V9.47981V9.4908V9.5018V9.51283V9.52388V9.53496V9.54606V9.55719V9.56834V9.57951V9.59071V9.60194V9.61318V9.62445V9.63575V9.64707V9.65841V9.66977V9.68116V9.69257V9.70401V9.71547V9.72695V9.73845V9.74998V9.76153V9.77311V9.7847V9.79632V9.80796V9.81963V9.83132V9.84302V9.85476V9.86651V9.87829V9.89009V9.90191V9.91375V9.92562V9.9375V9.94941V9.96134V9.97329V9.98527V9.99726V10.0093V10.0213V10.0334V10.0455V10.0576V10.0697V10.0818V10.094V10.1062V10.1184V10.1306V10.1429V10.1551V10.1674V10.1797V10.1921V10.2044V10.2168V10.2292V10.2416V10.254V10.2665V10.2789V10.2914V10.3039V10.3165V10.329V10.3416V10.3542V10.3668V10.3794V10.3921V10.4047V10.4174V10.4301V10.4428V10.4556V10.4683V10.4811V10.4939V10.5067V10.5196V10.5324V10.5453V10.5582V10.5711V10.584V10.597V10.6099V10.6229V10.6359V10.6489V10.662V10.675V10.6881V10.7012V10.7143V10.7274V10.7405V10.7537V10.7669V10.7801V10.7933V10.8065V10.8197V10.833V10.8463V10.8596V10.8729V10.8862V10.8995V10.9129V10.9263V10.9397V10.9531V10.9665V10.9799V10.9934V11.0069V11.0203V11.0338V11.0474V11.0609V11.0744V11.088V11.1016V11.1152V11.1288V11.1424V11.1561V11.1697V11.1834V11.1971V11.2108V11.2245V11.2382V11.252V11.2657V11.2795V11.2933V11.3071V11.3209V11.3347V11.3486V11.3624V11.3763V11.3902V11.4041V11.418V11.432V11.4459V11.4599V11.4738V11.4878V11.5018V11.5158V11.5298V11.5439V11.5579V11.572V11.586V11.6001V11.6142V11.6283V11.6425V11.6566V11.6708V11.6849V11.6991V11.7133V11.7275V11.7417V11.7559V11.7702V11.7844V11.7987V11.8129V11.8272V11.8415V11.8558V11.8701V11.8845V11.8988V11.9132V11.9275V11.9419V11.9563V11.9707V11.9851V11.9995V12.0139V12.0284V12.0428V12.0573V12.0717V12.0862V12.1007V12.1152V12.1297V12.1442V12.1588V12.1733V12.1879V12.2024V12.217V12.2316V12.2462V12.2608V12.2754V12.29V12.3046V12.3193V12.3339V12.3486V12.3632V12.3779V12.3926V12.4073V12.422V12.4367V12.4514V12.4661V12.4809V12.4956V12.5104V12.5251V12.5399V12.5547V12.5694V12.5842V12.599V12.6138V12.6287V12.6435V12.6583V12.6731V12.688V12.7028V12.7177V12.7326V12.7474V12.7623V12.7772V12.7921V12.807V12.8219V12.8368V12.8518V12.8667V12.8816V12.8966V12.9115V12.9265V12.9414V12.9564V12.9714V12.9864V13.0013V13.0163V13.0313V13.0463V13.0613V13.0764V13.0914V13.1064V13.1214V13.1365V13.1515V13.1666V13.1816V13.1967V13.2117V13.2268V13.2419V13.2569V13.272V13.2871V13.3022V13.3173V13.3324V13.3475V13.3626V13.3777V13.3928V13.4079V13.4231V13.4382V13.4533V13.4685V13.4836V13.4987V13.5139V13.529V13.5442V13.5593V13.5745V13.5897V13.6048V13.62V13.6352V13.6503V13.6655V13.6807V13.6959V13.7111V13.7263V13.7415V13.7566V13.7718V13.787V13.8022V13.8174V13.8326V13.8479V13.8631V13.8783V13.8935V13.9087V13.9239V13.9391V13.9543V13.9696V13.9848V14V14.0152V14.0304V14.0457V14.0609V14.0761V14.0914V14.1066V14.1218V14.137V14.1523V14.1675V14.1827V14.198V14.2132V14.2284V14.2437V14.2589V14.2741V14.2894V14.3046V14.3198V14.335V14.3503V14.3655V14.3807V14.396V14.4112V14.4264V14.4416V14.4569V14.4721V14.4873V14.5025V14.5178V14.533V14.5482V14.5634V14.5786V14.5939V14.6091V14.6243V14.6395V14.6547V14.6699V14.6851V14.7003V14.7155V14.7307V14.7459V14.7611V14.7763V14.7915V14.8067V14.8218V14.837V14.8522V14.8674V14.8825V14.8977V14.9129V14.928V14.9432V14.9584V14.9735V14.9887V15.0038V15.0189V15.0341V15.0492V15.0644V15.0795V15.0946V15.1097V15.1248V15.14V15.1551V15.1702V15.1853V15.2004V15.2154V15.2305V15.2456V15.2607V15.2758V15.2908V15.3059V15.3209V15.336V15.351V15.3661V15.3811V15.3962V15.4112V15.4262V15.4412V15.4562V15.4712V15.4862V15.5012V15.5162V15.5312V15.5462C0.283984 16.0987 0.723874 16.55 1.2672 16.55H4.9792C5.52251 16.55 5.96242 16.0987 5.96242 15.5462V15.531V15.5158V15.5007V15.4855V15.4703V15.4551V15.4399V15.4248V15.4096V15.3944V15.3792V15.3639V15.3487V15.3335V15.3183V15.3031V15.2878V15.2726V15.2574V15.2421V15.2269V15.2116V15.1964V15.1811V15.1659V15.1506V15.1354V15.1201V15.1048V15.0896V15.0743V15.059V15.0437V15.0284V15.0131V14.9979V14.9826V14.9673V14.952V14.9367V14.9214V14.9061V14.8908V14.8755V14.8602V14.8448V14.8295V14.8142V14.7989V14.7836V14.7683V14.7529V14.7376V14.7223V14.707V14.6917V14.6763V14.661V14.6457V14.6303V14.615V14.5997V14.5844V14.569V14.5537V14.5384V14.523V14.5077V14.4924V14.477V14.4617V14.4464V14.431V14.4157V14.4003V14.385V14.3697V14.3543V14.339V14.3237V14.3083V14.293V14.2777V14.2624V14.247V14.2317V14.2164V14.201V14.1857V14.1704V14.1551V14.1398V14.1244V14.1091V14.0938V14.0785V14.0632V14.0479V14.0325V14.0172V14.0019V13.9866V13.9713V13.956V13.9407V13.9254V13.9101V13.8948V13.8796V13.8643V13.849V13.8337V13.8184V13.8032V13.7879V13.7726V13.7573V13.7421V13.7268V13.7116V13.6963V13.6811V13.6658V13.6506V13.6353V13.6201V13.6049V13.5896V13.5744V13.5592V13.544V13.5288V13.5136V13.4984V13.4832V13.468V13.4528V13.4376V13.4224V13.4072V13.3921V13.3769V13.3617V13.3466V13.3314V13.3163V13.3011V13.286V13.2709V13.2557V13.2406V13.2255V13.2104V13.1953V13.1802V13.1651V13.15V13.1349V13.1198V13.1048V13.0897V13.0746V13.0596V13.0445V13.0295V13.0145V12.9994V12.9844V12.9694V12.9544V12.9394V12.9244V12.9094V12.8945V12.8795V12.8645V12.8496V12.8346V12.8197V12.8047V12.7898V12.7749V12.76V12.7451V12.7302V12.7153V12.7004V12.6855V12.6707V12.6558V12.6409V12.6261V12.6113V12.5964V12.5816V12.5668V12.552V12.5372V12.5225V12.5077V12.4929V12.4782V12.4634V12.4487V12.4339V12.4192V12.4045V12.3898V12.3751V12.3604V12.3458V12.3311V12.3165V12.3018V12.2872V12.2726V12.2579V12.2433V12.2287V12.2142V12.1996V12.185V12.1705V12.1559V12.1414V12.1269V12.1124V12.0979V12.0834V12.0689V12.0544V12.04V12.0255V12.0111V11.9967V11.9823V11.9679V11.9535V11.9391V11.9247V11.9104V11.896V11.8817V11.8674V11.8531V11.8388V11.8245V11.8102V11.796V11.7817V11.7675V11.7533V11.739V11.7248V11.7107V11.6965V11.6823V11.6682V11.654V11.6399V11.6258V11.6117V11.5976V11.5836V11.5695V11.5555V11.5414V11.5274V11.5134V11.4994V11.4855V11.4715V11.4576V11.4436V11.4297V11.4158V11.4019V11.388V11.3742V11.3603V11.3465V11.3327V11.3189V11.3051V11.2913V11.2775V11.2638V11.25V11.2363V11.2226V11.2089V11.1953V11.1816V11.168V11.1543V11.1407V11.1271V11.1136V11.1V11.0864V11.0729V11.0594V11.0459V11.0324V11.0189V11.0055V10.992V10.9786V10.9652V10.9518V10.9385V10.9251V10.9118V10.8984V10.8851V10.8718V10.8586V10.8453V10.8321V10.8189V10.8057V10.7925V10.7793V10.7661V10.753V10.7399V10.7268V10.7137V10.7006V10.6876V10.6746V10.6616V10.6486V10.6356V10.6226V10.6097V10.5968V10.5839V10.571V10.5581V10.5453V10.5324V10.5196V10.5068V10.4941V10.4813V10.4686V10.4559V10.4432V10.4305V10.4178V10.4052V10.3926V10.38V10.3674V10.3548V10.3423V10.3298V10.3173V10.3048V10.2923V10.2799V10.2675V10.255V10.2427V10.2303V10.218V10.2056V10.1933V10.1811V10.1688V10.1566V10.1443V10.1321V10.12V10.1078V10.0957V10.0836V10.0715V10.0594V10.0473V10.0353V10.0233V10.0113V9.99934V9.9874V9.97548V9.96358V9.9517V9.93984V9.928V9.91619V9.9044V9.89263V9.88089V9.86916V9.85746V9.84578V9.83412V9.82249V9.81088V9.79929V9.78772V9.77618V9.76466V9.75316V9.74168V9.73023V9.7188V9.7074V9.69602V9.68466V9.67332V9.66201V9.65072V9.63946V9.62822V9.617V9.60581V9.59464V9.5835V9.57237V9.56128V9.55021V9.53916V9.52813V9.51713V9.50616V9.49521V9.48428V9.47338V9.46251V9.45165V9.44083V9.43003V9.41925V9.4085V9.39777V9.38707V9.37639V9.36574V9.35512V9.34452V9.33395V9.3234V9.31288V9.30238V9.29191V9.28146V9.27104V9.26065V9.25029V9.23995V9.22963V9.21934V9.20908V9.19885V9.18864V9.17846V9.1683V9.15817V9.14807V9.138V9.12795V9.11793V9.10794V9.09797V9.08803V9.07812V9.06824V9.05838V9.04855V9.03875V9.02897V9.01923V9.00951V8.99982V8.99016V8.98052V8.97091V8.96134V8.95179V8.94226V8.93277V8.92331V8.91387V8.90446V8.89508V8.88573V8.87641V8.86712V8.85785V8.84862V8.83941V8.83023V8.82108V8.81196V8.80288V8.79382V8.78479V8.77578V8.76681V8.75787V8.74896V8.74008V8.73122V8.7224V8.71361V8.70485V8.69611V8.68741V8.67874V7.04286C5.96242 6.39986 5.50486 6.03807 5.06952 5.75773C5.00376 5.71538 4.9388 5.67505 4.87577 5.63592C4.72669 5.54337 4.58835 5.45749 4.47556 5.36732C4.3154 5.23928 4.22247 5.11429 4.22247 4.96805V2.8273V0.979515C4.22247 0.688484 3.99055 0.45 3.70321 0.45H2.5432C2.25586 0.45 2.02393 0.688484 2.02393 0.979515V2.8273V4.96805C2.02393 5.11497 1.93106 5.23921 1.77103 5.36592C1.65904 5.4546 1.52194 5.53875 1.37408 5.62951C1.31004 5.66882 1.24398 5.70937 1.17706 5.75206C0.741365 6.03004 0.283984 6.39105 0.283984 7.04286ZM2.59336 1.03462L3.64809 1.02975V2.29245H2.59745L2.59336 1.03462ZM0.85835 9.21359H5.38803V13.3795H0.85835V9.21359ZM0.85835 13.9643H5.38803V15.5462C5.38803 15.7782 5.20348 15.9652 4.97918 15.9652H1.2672C1.0429 15.9652 0.85835 15.7782 0.85835 15.5462V13.9643Z" fill="#565E64" stroke="#565E64" stroke-width="0.1"/>
<path id="Vector_2" d="M1.2332 7.52742C1.2332 7.11181 1.43499 6.72558 1.77364 6.49473L1.8018 6.53604L1.77351 6.49482C1.90575 6.40404 2.08508 6.44155 2.17259 6.57599M1.2332 7.52742L2.17259 6.57599M1.2332 7.52742C1.2332 7.68784 1.36064 7.81984 1.52039 7.81984C1.68013 7.81984 1.80757 7.68784 1.80757 7.52742C1.80757 7.30663 1.91457 7.10243 2.09308 6.98079L1.2332 7.52742ZM2.17259 6.57599C2.1726 6.576 2.1726 6.57601 2.17261 6.57603L2.1307 6.6033L2.17257 6.57596C2.17257 6.57597 2.17258 6.57598 2.17259 6.57599Z" fill="#565E64" stroke="#565E64" stroke-width="0.1"/>
</g>
</svg>
