<svg width="21" height="21" viewBox="0 0 21 21" fill="none" xmlns="http://www.w3.org/2000/svg">
<g clip-path="url(#clip0_2041_8237)">
<path fill-rule="evenodd" clip-rule="evenodd" d="M9.72477 8.68918C9.66489 8.60032 9.6122 8.51674 9.55951 8.4389C8.89369 7.41359 8.31649 6.93075 7.77761 6.66442C7.66584 6.60666 7.58124 6.50728 7.54208 6.38771C7.50291 6.26814 7.51231 6.13797 7.56826 6.02527C7.6242 5.91257 7.72219 5.82638 7.84111 5.78528C7.96003 5.74418 8.09034 5.75146 8.20393 5.80557C8.85058 6.12554 9.56191 6.68502 10.3642 7.9163C11.5546 9.74802 14.9435 14.6887 15.5758 15.805C15.868 16.3178 15.9063 16.9192 15.6956 17.5479C15.4201 18.3593 14.7016 19.2357 13.576 19.9664C12.3449 20.7658 11.1115 21.0873 10.1655 20.98C9.43497 20.8971 8.85777 20.5663 8.51768 20.0236C7.74887 18.8079 4.42458 13.5729 3.58872 12.103C2.7313 10.5985 2.80794 9.49606 2.93009 8.4935C3.03068 7.6792 3.18875 6.94344 2.62352 6.04938C1.68707 4.57141 0.0728252 1.97186 0.0728252 1.97186C0.0367373 1.91416 0.0133704 1.84943 0.00428431 1.78199C-0.00480175 1.71454 0.000602185 1.64594 0.0201349 1.58075C0.0201349 1.58075 0.216526 0.896491 0.925453 0.434012C1.58887 3.40041e-05 2.24032 3.39568e-05 2.24032 3.39568e-05C2.40079 -0.00188206 2.55167 0.0773932 2.64268 0.210557C2.64268 0.210557 4.28807 2.6439 5.26523 4.11971C5.75621 4.85882 6.21845 5.12395 6.70225 5.28896C6.76167 5.30937 6.81649 5.34127 6.86357 5.38287C6.91066 5.42446 6.94909 5.47492 6.97667 5.53137C7.00424 5.58782 7.02043 5.64914 7.0243 5.71185C7.02818 5.77455 7.01966 5.83741 6.99923 5.89682C6.979 5.95645 6.9472 6.0115 6.90565 6.05881C6.8641 6.10612 6.81362 6.14477 6.75711 6.17254C6.70059 6.20031 6.63915 6.21665 6.57631 6.22063C6.51347 6.2246 6.45046 6.21614 6.3909 6.19572C5.74663 5.97562 5.11914 5.63456 4.46769 4.64877C4.14436 4.15947 3.74679 3.56479 3.3588 2.98854C3.20791 3.02902 2.94446 3.11476 2.74088 3.26349C2.54928 3.40432 2.38642 3.59281 2.29062 3.71855C2.68819 4.35514 3.10253 5.01569 3.43304 5.53685C4.01503 6.45773 4.03419 7.2433 3.94797 8.05833C3.84499 9.05083 3.548 10.0963 4.42219 11.6291C4.4629 11.7016 4.5108 11.7835 4.56349 11.8736C4.87724 11.842 5.9071 11.6616 7.58601 10.6399C8.85298 9.86801 9.48048 9.06448 9.72477 8.68918ZM13.461 14.2739C13.1185 14.8686 12.479 15.6879 11.3318 16.3858C9.89242 17.2631 8.75478 17.4894 8.0746 17.5297C8.63264 18.4137 9.09488 19.1463 9.32719 19.5125C9.52119 19.8196 9.86128 19.9812 10.2756 20.0282C11.0468 20.1158 12.0479 19.8172 13.0539 19.1631C13.8179 18.6668 14.3687 18.1028 14.6585 17.5438C14.8932 17.088 14.9507 16.6435 14.7423 16.2776C14.5412 15.9229 14.0622 15.1802 13.461 14.2739ZM10.2924 9.54396C9.9044 10.0486 9.21463 10.769 8.08418 11.4583C6.70704 12.297 5.69634 12.6268 5.09279 12.7559C5.73466 13.8073 6.63758 15.2491 7.45668 16.5518C7.49021 16.5516 7.52135 16.5547 7.55488 16.5614C7.55488 16.5614 8.83142 16.7867 10.8337 15.5677C12.194 14.7385 12.7018 13.719 12.8479 13.352C12.685 13.1097 12.5198 12.862 12.3521 12.6122C12.0575 12.9202 11.7869 13.1015 11.5522 13.1985C11.5282 13.3087 11.4923 13.4167 11.442 13.5207C11.3031 13.8021 11.054 14.065 10.6349 14.2504C10.2828 14.4071 9.9499 14.4375 9.64813 14.3814C9.48287 14.7122 9.21942 14.9634 8.89849 15.0731C8.7782 15.1139 8.64666 15.1054 8.53264 15.0494C8.41863 14.9934 8.33144 14.8946 8.29015 14.7745C8.24993 14.6541 8.25882 14.5228 8.31487 14.409C8.37093 14.2952 8.46963 14.2081 8.58953 14.1666C8.68293 14.1345 8.7476 14.0559 8.7931 13.9582L8.78592 13.951C8.34523 13.5736 8.06981 13.0266 8.01233 12.6793C7.95485 12.3349 8.08418 12.0951 8.23267 11.9795C8.38356 11.8609 8.66377 11.7577 9.05177 12.0072C9.55951 12.3342 9.80859 12.8874 9.83733 13.4342C9.96427 13.4538 10.1008 13.4395 10.2469 13.3746C10.405 13.3051 10.5127 13.2208 10.5726 13.1178C10.2708 12.8951 10.096 12.4997 10.0649 12.1842C10.0289 11.82 10.2062 11.5651 10.3379 11.483C10.5031 11.3793 10.781 11.2974 11.0708 11.6219C11.217 11.787 11.3352 11.975 11.4204 12.1785C11.5354 12.0863 11.6623 11.9593 11.8013 11.7929C11.2624 10.992 10.7331 10.2064 10.2924 9.54396ZM2.01519 0.994208C1.8643 1.02918 1.65833 1.09887 1.44757 1.23587C1.27303 1.35063 1.12718 1.50394 1.02125 1.68397L1.15298 1.89474L1.75892 2.86855C1.88571 2.72968 2.02523 2.60298 2.17566 2.49014C2.37205 2.34668 2.60436 2.2401 2.80555 2.16537C2.47264 1.6708 2.18763 1.2464 2.01519 0.994208Z" fill="#41464B"/>
</g>
<defs>
<clipPath id="clip0_2041_8237">
<rect width="21" height="21" fill="white"/>
</clipPath>
</defs>
</svg>
