<svg width="20" height="20" viewBox="0 0 20 20" fill="none" xmlns="http://www.w3.org/2000/svg">
<path d="M19.1936 9.87845C19.139 9.82585 19.0641 9.79539 18.9852 9.79375L1.04147 9.71289C0.96097 9.71339 0.883921 9.74317 0.826996 9.79577C0.770072 9.84837 0.73785 9.91957 0.737305 9.99396L0.756054 13.8C0.755963 13.8712 0.785561 13.9397 0.838705 13.9914C0.89185 14.043 0.964461 14.0737 1.04147 14.0772C1.08122 14.0774 1.12062 14.0704 1.1574 14.0564C1.19418 14.0425 1.22759 14.022 1.25569 13.996C1.2838 13.97 1.30604 13.9391 1.32112 13.9052C1.33621 13.8712 1.34383 13.8348 1.34355 13.798L1.33314 10.2731L18.6665 10.352L18.579 13.6787C18.5773 13.7158 18.5837 13.7529 18.5977 13.7877C18.6118 13.8225 18.6332 13.8544 18.6607 13.8815C18.6883 13.9086 18.7214 13.9303 18.7582 13.9454C18.7949 13.9605 18.8346 13.9686 18.8748 13.9694C18.9546 13.9699 19.0315 13.9416 19.0891 13.8906C19.1467 13.8395 19.1804 13.7697 19.1831 13.696L19.279 10.0844C19.2805 10.0466 19.2737 10.0088 19.259 9.97338C19.2444 9.93798 19.2221 9.90569 19.1936 9.87845Z" fill="black" stroke="black" stroke-width="0.4"/>
<path d="M18.8853 14.8672C18.8056 14.8666 18.7288 14.8946 18.6709 14.9452C18.6131 14.9958 18.5786 15.0651 18.5749 15.1386L18.4874 18.4807L1.32904 18.6058L1.38737 15.1983C1.38106 15.128 1.34639 15.0625 1.29024 15.0148C1.23409 14.967 1.16056 14.9405 1.08424 14.9405C1.00793 14.9405 0.934401 14.967 0.878251 15.0148C0.8221 15.0625 0.787431 15.128 0.78112 15.1983L0.720703 18.8907C0.721798 18.9641 0.754108 19.0341 0.810641 19.0856C0.867175 19.1371 0.943386 19.166 1.02279 19.166L18.7811 19.039C18.8598 19.0385 18.9352 19.0096 18.9912 18.9586C19.0472 18.9075 19.0795 18.8383 19.0811 18.7656L19.177 15.1521C19.1781 15.1157 19.1714 15.0795 19.1573 15.0454C19.1433 15.0114 19.1221 14.9803 19.095 14.9538C19.0679 14.9273 19.0355 14.9061 18.9995 14.8912C18.9635 14.8764 18.9247 14.8682 18.8853 14.8672Z" fill="black" stroke="black" stroke-width="0.4"/>
<path d="M1.87503 14.4433C1.87503 14.5173 1.90686 14.5883 1.96351 14.6406C2.02016 14.693 2.097 14.7224 2.17711 14.7224H17.5334C17.6135 14.7224 17.6903 14.693 17.747 14.6406C17.8036 14.5883 17.8354 14.5173 17.8354 14.4433C17.8354 14.3692 17.8036 14.2982 17.747 14.2459C17.6903 14.1935 17.6135 14.1641 17.5334 14.1641L2.18545 14.1603C2.14473 14.1592 2.1042 14.1658 2.0663 14.1796C2.02841 14.1934 1.99392 14.2142 1.96493 14.2406C1.93593 14.267 1.91302 14.2986 1.89757 14.3334C1.88212 14.3683 1.87445 14.4056 1.87503 14.4433Z" fill="black" stroke="black" stroke-width="0.4"/>
<path d="M3.67083 12.3206C3.6704 12.2191 3.63733 12.12 3.57581 12.0359C3.51429 11.9518 3.4271 11.8865 3.32532 11.8482C3.22354 11.81 3.11176 11.8006 3.00418 11.8212C2.8966 11.8418 2.79808 11.8915 2.72113 11.964C2.64418 12.0364 2.59227 12.1284 2.57201 12.2282C2.55174 12.328 2.56403 12.4311 2.60732 12.5244C2.6506 12.6177 2.72293 12.697 2.8151 12.7523C2.90728 12.8075 3.01514 12.8362 3.125 12.8347C3.27071 12.8321 3.40953 12.7769 3.51161 12.6807C3.61368 12.5846 3.67086 12.4553 3.67083 12.3206ZM3.06666 12.3206C3.06666 12.3084 3.07193 12.2966 3.08131 12.288C3.09068 12.2793 3.1034 12.2744 3.11666 12.2744C3.12992 12.2744 3.14264 12.2793 3.15202 12.288C3.1614 12.2966 3.16666 12.3084 3.16666 12.3206C3.16666 12.3726 3.06666 12.3726 3.06666 12.3206Z" fill="black"/>
<path d="M17.3329 12.3207C17.3325 12.2195 17.2997 12.1207 17.2385 12.0367C17.1774 11.9528 17.0907 11.8874 16.9894 11.849C16.8881 11.8105 16.7767 11.8006 16.6694 11.8206C16.562 11.8406 16.4635 11.8895 16.3862 11.9612C16.3089 12.0329 16.2563 12.1242 16.2351 12.2234C16.2139 12.3227 16.225 12.4256 16.267 12.519C16.309 12.6125 16.38 12.6924 16.4711 12.7485C16.5622 12.8047 16.6693 12.8347 16.7788 12.8347C16.9259 12.8342 17.0669 12.7798 17.1708 12.6835C17.2746 12.5871 17.3329 12.4567 17.3329 12.3207ZM16.7288 12.3207C16.7288 12.3085 16.734 12.2967 16.7434 12.288C16.7528 12.2794 16.7655 12.2745 16.7788 12.2745C16.792 12.2745 16.8048 12.2794 16.8141 12.288C16.8235 12.2967 16.8288 12.3085 16.8288 12.3207C16.8288 12.3727 16.7288 12.3727 16.7288 12.3207Z" fill="black" stroke="black" stroke-width="0.4"/>
<path d="M2.5625 16.6879C2.56251 16.7889 2.59481 16.8876 2.65535 16.9716C2.71588 17.0556 2.80194 17.1213 2.90272 17.1602C3.00349 17.1992 3.11449 17.2098 3.22175 17.1907C3.32902 17.1715 3.42776 17.1235 3.50559 17.0527C3.58341 16.9818 3.63684 16.8913 3.65915 16.7925C3.68146 16.6936 3.67167 16.5909 3.631 16.4972C3.59034 16.4035 3.5206 16.323 3.43057 16.2659C3.34055 16.2087 3.23423 16.1774 3.125 16.1758C3.05153 16.1748 2.97857 16.1873 2.91037 16.2126C2.84217 16.2379 2.78009 16.2754 2.72775 16.3231C2.6754 16.3707 2.63384 16.4275 2.60547 16.4902C2.5771 16.5528 2.56249 16.62 2.5625 16.6879ZM3.16667 16.6879C3.16667 16.7399 3.06667 16.738 3.06667 16.6879C3.06667 16.6757 3.07193 16.6639 3.08131 16.6553C3.09069 16.6466 3.10341 16.6417 3.11667 16.6417C3.12993 16.6417 3.14265 16.6466 3.15202 16.6553C3.1614 16.6639 3.16667 16.6757 3.16667 16.6879Z" fill="black"/>
<path d="M16.2246 16.6879C16.2246 16.7891 16.2571 16.8882 16.318 16.9724C16.3789 17.0566 16.4654 17.1222 16.5667 17.161C16.668 17.1997 16.7794 17.2099 16.8869 17.1901C16.9944 17.1704 17.0931 17.1216 17.1706 17.05C17.2481 16.9783 17.3009 16.8871 17.3223 16.7878C17.3437 16.6884 17.3327 16.5855 17.2908 16.4919C17.2488 16.3983 17.1778 16.3184 17.0867 16.2621C16.9955 16.2058 16.8884 16.1758 16.7788 16.1758C16.6318 16.1758 16.4908 16.2297 16.3869 16.3258C16.283 16.4218 16.2246 16.5521 16.2246 16.6879ZM16.8288 16.6879C16.8288 16.7379 16.7288 16.7398 16.7288 16.6879C16.7288 16.6756 16.734 16.6639 16.7434 16.6552C16.7528 16.6465 16.7655 16.6417 16.7788 16.6417C16.792 16.6417 16.8048 16.6465 16.8141 16.6552C16.8235 16.6639 16.8288 16.6756 16.8288 16.6879Z" fill="black" stroke="black" stroke-width="0.4"/>
<path d="M9.13555 6.75279C9.42866 6.46969 9.59916 6.09705 9.61471 5.70551V5.23193H10.796V5.68434C10.8119 6.06821 10.9577 6.43781 11.2126 6.74123L12.2543 7.87514C12.487 8.16179 12.6239 8.50509 12.648 8.86273C12.648 8.89955 12.6559 8.93601 12.6712 8.97C12.6866 9.004 12.709 9.03485 12.7373 9.0608C12.7655 9.08675 12.7991 9.10727 12.836 9.12118C12.8729 9.1351 12.9124 9.14213 12.9522 9.14188C13.0325 9.14137 13.1094 9.11153 13.1659 9.05888C13.2225 9.00622 13.2543 8.93502 13.2543 8.86081C13.2275 8.37093 13.0384 7.90049 12.7126 7.51321L11.671 6.37931C11.5066 6.17772 11.4096 5.93617 11.3918 5.68434V2.39813C11.3888 2.25271 11.3236 2.11429 11.2105 2.01311C11.1542 1.95877 11.0866 1.91543 11.0119 1.88567C10.9371 1.85591 10.8566 1.84032 10.7751 1.83984L9.57096 1.85717C9.41218 1.8597 9.26086 1.9199 9.14974 2.02474C9.03862 2.12958 8.97664 2.27064 8.97721 2.41738L9.00846 5.70744C8.99283 5.94439 8.8899 6.16925 8.7168 6.34466C8.68807 6.36994 8.66501 6.4002 8.64894 6.43372C8.63287 6.46723 8.6241 6.50334 8.62314 6.53999C8.62217 6.57664 8.62902 6.6131 8.64331 6.6473C8.65759 6.6815 8.67902 6.71276 8.70638 6.73931C8.73374 6.76585 8.76649 6.78716 8.80276 6.80201C8.83903 6.81686 8.87811 6.82496 8.91776 6.82586C8.95742 6.82675 8.99688 6.82042 9.03389 6.80722C9.0709 6.79402 9.10474 6.77422 9.13346 6.74893L9.13555 6.75279ZM10.7793 2.39236V4.66594H9.59596L9.58346 2.41738L10.7793 2.39236Z" fill="black" stroke="black" stroke-width="0.4"/>
<path d="M3.16622 9.13642C3.24637 9.13592 3.32311 9.10641 3.37998 9.05422C3.43684 9.00203 3.4693 8.93132 3.47039 8.85727C3.49335 8.49939 3.63035 8.15578 3.86414 7.86968L4.91622 6.7377C5.17086 6.43337 5.31651 6.06326 5.33289 5.67887V5.22647H6.63289V5.6731C6.64704 6.0573 6.79295 6.42741 7.04956 6.73L8.12456 7.86968C8.35866 8.15578 8.49634 8.49928 8.52039 8.85727C8.52039 8.9313 8.55222 9.00231 8.60887 9.05466C8.66552 9.10701 8.74236 9.13642 8.82247 9.13642C8.90278 9.13591 8.97962 9.10607 9.03621 9.05341C9.0928 9.00076 9.12456 8.92956 9.12456 8.85535C9.09962 8.36511 8.91033 7.89416 8.58289 7.50775L7.54122 6.37385C7.3769 6.17226 7.27988 5.93071 7.26206 5.67887V2.39267C7.25983 2.24748 7.1954 2.10902 7.08289 2.00765C7.02424 1.95227 6.95376 1.90877 6.87592 1.87994C6.79809 1.8511 6.71462 1.83756 6.63081 1.84016H6.07456H5.35581C5.19691 1.8407 5.04419 1.89714 4.92872 1.99802C4.81564 2.0992 4.75048 2.23762 4.74747 2.38305V5.67118C4.72926 5.92235 4.63225 6.16317 4.46831 6.36422L3.42664 7.49813C3.10089 7.88541 2.9118 8.35584 2.88497 8.84572C2.88206 8.91838 2.90973 8.98926 2.96218 9.04347C3.01462 9.09767 3.08776 9.13099 3.16622 9.13642ZM5.91414 2.4177L6.63497 2.4023V4.68358H5.33706V2.41577L5.91414 2.4177Z" fill="black" stroke="black" stroke-width="0.4"/>
<path d="M13.0016 6.75281C13.2956 6.47023 13.4662 6.09727 13.4808 5.70554V5.23196H14.662V5.68437C14.681 6.06932 14.8304 6.43903 15.0891 6.74126L16.1308 7.87517C16.3644 8.16138 16.5013 8.50493 16.5245 8.86276C16.5273 8.93647 16.561 9.00629 16.6186 9.05735C16.6762 9.10841 16.7531 9.13667 16.8329 9.13613C16.9132 9.13562 16.99 9.10579 17.0466 9.05313C17.1032 9.00047 17.135 8.92927 17.135 8.85506C17.1081 8.36518 16.919 7.89475 16.5933 7.50747L15.5412 6.37164C15.3769 6.17005 15.2799 5.9285 15.262 5.67667L15.2516 2.39046C15.2508 2.3174 15.2344 2.2452 15.2034 2.17799C15.1724 2.11077 15.1274 2.04986 15.0709 1.99874C15.0144 1.94761 14.9475 1.90726 14.8742 1.88001C14.8008 1.85275 14.7224 1.83911 14.6433 1.83987L13.437 1.8572C13.2783 1.85973 13.1269 1.91993 13.0158 2.02477C12.9047 2.12961 12.8427 2.27067 12.8433 2.41741L12.8745 5.70747C12.8587 5.944 12.7566 6.1686 12.585 6.34469C12.5305 6.39613 12.5 6.46523 12.5 6.5372C12.5 6.60917 12.5305 6.67827 12.585 6.72971C12.6378 6.78237 12.7107 6.81416 12.7883 6.81846C12.8659 6.82276 12.9423 6.79925 13.0016 6.75281ZM14.6454 2.39239V4.66597H13.462L13.4475 2.41741L14.6454 2.39239Z" fill="black" stroke="black" stroke-width="0.4"/>
</svg>
