<svg width="101" height="95" viewBox="0 0 101 95" fill="none" xmlns="http://www.w3.org/2000/svg">
<g clip-path="url(#clip0_2071_9821)">
<path d="M34.933 49.2C32.0616 49.2 29.733 51.5286 29.733 54.4C29.733 57.2714 32.0616 59.6 34.933 59.6C37.8045 59.6 40.133 57.2714 40.133 54.4C40.133 51.5286 37.8045 49.2 34.933 49.2ZM34.933 57C33.5009 57 32.333 55.8347 32.333 54.4C32.333 52.9653 33.5009 51.8 34.933 51.8C36.3651 51.8 37.533 52.9653 37.533 54.4C37.533 55.8347 36.3651 57 34.933 57ZM24.533 44C24.533 41.1286 22.2018 38.8 19.333 38.8C16.459 38.8 14.133 41.1286 14.133 44C14.133 46.8714 16.459 49.2 19.333 49.2C22.2024 49.2 24.533 46.8714 24.533 44ZM16.733 44C16.733 42.5653 17.9009 41.4 19.333 41.4C20.7651 41.4 21.933 42.5653 21.933 44C21.933 45.4347 20.7651 46.6 19.333 46.6C17.9009 46.6 16.733 45.4347 16.733 44ZM27.133 18C27.133 18 6.33301 31 6.33301 49.2C6.33301 60.6868 15.6462 70 27.133 70C38.6198 70 47.933 60.6868 47.933 49.2C47.933 31 27.133 18 27.133 18ZM27.133 67.4C17.0986 67.4 8.93301 59.2344 8.93301 49.2C8.93301 35.291 22.6745 24.3352 27.1356 21.146C31.5967 24.3274 45.333 35.2531 45.333 49.2C45.333 59.2344 37.1674 67.4 27.133 67.4ZM35.8524 42.3194L20.2524 57.9194L18.4142 56.0812L34.0142 40.4812L35.8524 42.3194Z" fill="black" stroke="black" stroke-width="0.2"/>
</g>
<g clip-path="url(#clip1_2071_9821)">
<path d="M83.6518 55.6095H76.4732C76.3153 55.6095 76.204 55.7386 76.1294 55.8716C76.0493 56.0143 75.9818 56.2128 75.9268 56.4481C75.8163 56.9208 75.75 57.5706 75.75 58.2935C75.75 59.0164 75.8163 59.6662 75.9268 60.1389C75.9818 60.3742 76.0493 60.5727 76.1294 60.7154C76.204 60.8484 76.3153 60.9775 76.4732 60.9775H83.6518C83.8097 60.9775 83.921 60.8484 83.9956 60.7154C84.0757 60.5727 84.1432 60.3742 84.1982 60.1389C84.3087 59.6662 84.375 59.0164 84.375 58.2935C84.375 57.5706 84.3087 56.9208 84.1982 56.4481C84.1432 56.2128 84.0757 56.0143 83.9956 55.8716C83.921 55.7386 83.8097 55.6095 83.6518 55.6095Z" fill="black" stroke="black" stroke-width="0.25"/>
<path d="M83.6518 50.4896H76.4732C76.2295 50.4896 76.0483 50.6908 75.9352 50.9327C75.818 51.1834 75.75 51.5223 75.75 51.8941C75.75 52.2659 75.818 52.6048 75.9352 52.8555C76.0483 53.0974 76.2295 53.2986 76.4732 53.2986H83.6518C83.8955 53.2986 84.0767 53.0974 84.1898 52.8555C84.307 52.6048 84.375 52.2659 84.375 51.8941C84.375 51.5223 84.307 51.1834 84.1898 50.9327C84.0767 50.6908 83.8955 50.4896 83.6518 50.4896Z" fill="black" stroke="black" stroke-width="0.25"/>
<path d="M83.6518 45.3697H76.4732C76.2295 45.3697 76.0483 45.5709 75.9352 45.8128C75.818 46.0635 75.75 46.4024 75.75 46.7742C75.75 47.146 75.818 47.4849 75.9352 47.7356C76.0483 47.9775 76.2295 48.1787 76.4732 48.1787H83.6518C83.8955 48.1787 84.0767 47.9775 84.1898 47.7356C84.307 47.4849 84.375 47.146 84.375 46.7742C84.375 46.4024 84.307 46.0635 84.1898 45.8128C84.0767 45.5709 83.8955 45.3697 83.6518 45.3697Z" fill="black" stroke="black" stroke-width="0.25"/>
<path d="M83.6518 40.2553H76.4732C76.2295 40.2553 76.0483 40.4565 75.9352 40.6984C75.818 40.9491 75.75 41.288 75.75 41.6598C75.75 42.0316 75.818 42.3705 75.9352 42.6212C76.0483 42.8631 76.2295 43.0643 76.4732 43.0643H83.6518C83.8955 43.0643 84.0767 42.8631 84.1898 42.6212C84.307 42.3705 84.375 42.0316 84.375 41.6598C84.375 41.288 84.307 40.9491 84.1898 40.6984C84.0767 40.4565 83.8955 40.2553 83.6518 40.2553Z" fill="black" stroke="black" stroke-width="0.25"/>
<path d="M76.4732 37.9444H83.6518C83.8955 37.9444 84.0767 37.7432 84.1898 37.5013C84.307 37.2506 84.375 36.9117 84.375 36.5399C84.375 36.1681 84.307 35.8292 84.1898 35.5785C84.0767 35.3366 83.8955 35.1354 83.6518 35.1354H76.4732C76.2295 35.1354 76.0483 35.3366 75.9352 35.5785C75.818 35.8292 75.75 36.1681 75.75 36.5399C75.75 36.9117 75.818 37.2506 75.9352 37.5013C76.0483 37.7432 76.2295 37.9444 76.4732 37.9444Z" fill="black" stroke="black" stroke-width="0.25"/>
<path d="M73.208 74.9579C73.208 70.5542 69.8025 66.9436 65.4772 66.5517V33.343C65.4772 32.9148 65.137 32.5782 64.708 32.5782C64.279 32.5782 63.9388 32.9148 63.9388 33.343V66.5517C59.6135 66.9436 56.208 70.5542 56.208 74.9579C56.208 79.6084 60.0271 83.3997 64.708 83.3997C69.3889 83.3997 73.208 79.6084 73.208 74.9579ZM64.708 81.8702C60.8722 81.8702 57.7465 78.765 57.7465 74.9579C57.7465 71.1508 60.8722 68.0456 64.708 68.0456C68.5438 68.0456 71.6695 71.1508 71.6695 74.9579C71.6695 78.765 68.5438 81.8702 64.708 81.8702Z" fill="black" stroke="black" stroke-width="0.25"/>
<path d="M76.9099 67.8261L76.9096 67.8256C75.7817 65.8705 74.2023 64.2064 72.3201 62.9834V35.2604C72.3201 30.9572 68.8516 27.4583 64.5814 27.4583C60.3112 27.4583 56.8428 30.9572 56.8428 35.2604V63.1514C52.9459 65.8015 50.625 70.172 50.625 74.9253C50.625 82.7601 56.9359 89.125 64.7083 89.125C72.4808 89.125 78.7917 82.7601 78.7917 74.9253C78.7917 72.4341 78.1388 69.9817 76.9099 67.8261ZM58.012 64.2061L58.0129 64.2055C58.2256 64.0676 58.3617 63.8237 58.3617 63.5633V35.2604C58.3617 31.797 61.1492 28.9878 64.5814 28.9878C68.0137 28.9878 70.8011 31.797 70.8011 35.2604V63.3969C70.8011 63.6696 70.937 63.9155 71.1658 64.054C74.986 66.3728 77.2727 70.4267 77.2727 74.9253C77.2727 81.9074 71.6302 87.5955 64.7083 87.5955C57.7865 87.5955 52.1439 81.9074 52.1439 74.9253C52.1439 70.5535 54.3303 66.5501 58.012 64.2061Z" fill="black" stroke="black" stroke-width="0.25"/>
</g>
<defs>
<clipPath id="clip0_2071_9821">
<rect width="52" height="52" fill="white" transform="translate(2 18)"/>
</clipPath>
<clipPath id="clip1_2071_9821">
<rect width="67" height="67" fill="white" transform="translate(34 22)"/>
</clipPath>
</defs>
</svg>
