<svg width="22" height="21" viewBox="0 0 22 21" fill="none" xmlns="http://www.w3.org/2000/svg">
<path d="M11 0C5.20156 0 0.5 4.70156 0.5 10.5C0.5 16.2984 5.20156 21 11 21C16.7984 21 21.5 16.2984 21.5 10.5C21.5 4.70156 16.7984 0 11 0ZM11.75 15.5625C11.75 15.6656 11.6656 15.75 11.5625 15.75H10.4375C10.3344 15.75 10.25 15.6656 10.25 15.5625V9.1875C10.25 9.08438 10.3344 9 10.4375 9H11.5625C11.6656 9 11.75 9.08438 11.75 9.1875V15.5625ZM11 7.5C10.7056 7.49399 10.4253 7.37282 10.2192 7.1625C10.0132 6.95218 9.89773 6.66945 9.89773 6.375C9.89773 6.08055 10.0132 5.79782 10.2192 5.5875C10.4253 5.37718 10.7056 5.25601 11 5.25C11.2944 5.25601 11.5747 5.37718 11.7808 5.5875C11.9868 5.79782 12.1023 6.08055 12.1023 6.375C12.1023 6.66945 11.9868 6.95218 11.7808 7.1625C11.5747 7.37282 11.2944 7.49399 11 7.5Z" fill="#6C757D"/>
</svg>
