<svg width="24" height="24" viewBox="0 0 24 24" fill="none" xmlns="http://www.w3.org/2000/svg">
<g clip-path="url(#clip0_2388_7390)">
<path d="M23.5005 4.99921H5.50049C5.36788 4.99921 5.2407 5.05188 5.14693 5.14565C5.05317 5.23942 5.00049 5.3666 5.00049 5.49921V23.4992C5.00049 23.6318 5.05317 23.759 5.14693 23.8528C5.2407 23.9465 5.36788 23.9992 5.50049 23.9992H23.5005C23.6331 23.9992 23.7603 23.9465 23.854 23.8528C23.9478 23.759 24.0005 23.6318 24.0005 23.4992V5.49921C24.0005 5.3666 23.9478 5.23942 23.854 5.14565C23.7603 5.05188 23.6331 4.99921 23.5005 4.99921ZM9.35299 21.3517C9.65049 21.0567 9.93049 20.8192 10.203 20.6017C11.0505 19.8767 11.7855 19.2492 12.0005 17.5617C12.0652 16.8761 12.0761 16.1865 12.033 15.4992H12.0455C12.1781 15.4873 12.3005 15.4231 12.3859 15.3209C12.4712 15.2187 12.5124 15.0868 12.5005 14.9542C12.4886 14.8216 12.4244 14.6992 12.3222 14.6138C12.22 14.5285 12.0881 14.4873 11.9555 14.4992C11.8281 14.5057 11.7004 14.5057 11.573 14.4992C11.5373 14.4953 11.5012 14.4953 11.4655 14.4992C10.933 14.4742 10.0855 14.3517 9.53799 13.8492C9.35362 13.673 9.20999 13.4587 9.11715 13.2212C9.0243 12.9836 8.98449 12.7287 9.00049 12.4742C8.99594 12.233 9.05471 11.9947 9.17096 11.7833C9.2872 11.5719 9.45686 11.3946 9.66299 11.2692C9.85581 11.1359 10.0751 11.0457 10.3059 11.0047C10.5367 10.9637 10.7736 10.973 11.0005 11.0317C11.0005 11.0792 11.0005 11.1267 11.0005 11.1767V12.4992C11.0005 12.6318 11.0532 12.759 11.1469 12.8528C11.2407 12.9465 11.3679 12.9992 11.5005 12.9992C11.6331 12.9992 11.7603 12.9465 11.854 12.8528C11.9478 12.759 12.0005 12.6318 12.0005 12.4992V11.1767C12.0012 10.5994 12.2308 10.0459 12.639 9.63771C13.0472 9.2295 13.6007 8.99987 14.178 8.99921H15.7505C16.3472 8.99921 16.9195 9.23626 17.3415 9.65822C17.7634 10.0802 18.0005 10.6525 18.0005 11.2492V13.2092C17.9107 13.152 17.8181 13.0994 17.723 13.0517C17.6049 12.9975 17.4704 12.9913 17.3478 13.0346C17.2253 13.0778 17.1244 13.1671 17.0666 13.2835C17.0087 13.3998 16.9984 13.5341 17.0379 13.6579C17.0774 13.7817 17.1635 13.8853 17.278 13.9467C17.6758 14.1625 18.0268 14.455 18.3109 14.8073C18.595 15.1596 18.8064 15.5647 18.933 15.9992H16.5005C16.3679 15.9992 16.2407 16.0519 16.1469 16.1457C16.0532 16.2394 16.0005 16.3666 16.0005 16.4992C16.0005 16.6318 16.0532 16.759 16.1469 16.8528C16.2407 16.9465 16.3679 16.9992 16.5005 16.9992H18.893C18.608 17.6342 17.793 17.9992 17.0005 17.9992C16.1227 18.0259 15.2669 17.7216 14.603 17.1467C14.5073 17.0648 14.3843 17.022 14.2585 17.0269C14.1326 17.0317 14.0133 17.0839 13.9242 17.1729C13.8352 17.262 13.783 17.3813 13.7781 17.5072C13.7733 17.633 13.8161 17.7561 13.898 17.8517C14.2187 18.1593 14.5921 18.4065 15.0005 18.5817C14.9863 18.9415 15.0759 19.2977 15.2585 19.608C15.4411 19.9182 15.7091 20.1695 16.0305 20.3317C16.1604 20.4091 16.2826 20.4986 16.3955 20.5992C16.6891 20.8654 17.013 21.0961 17.3605 21.2867C18.093 21.7317 18.8455 22.1917 18.9755 22.9967H9.00049C8.97799 22.4992 9.04549 21.6617 9.35299 21.3517ZM23.0005 22.9992H20.0005C19.8755 21.6392 18.7505 20.9467 17.893 20.4342C17.6167 20.2812 17.3562 20.1012 17.1155 19.8967C16.9496 19.7427 16.7658 19.6092 16.568 19.4992C16.293 19.3217 16.118 19.2092 16.043 18.9142C16.3587 18.9729 16.6793 19.0013 17.0005 18.9992C18.4755 18.9992 20.0005 18.0642 20.0005 16.4992C19.9655 15.5971 19.6111 14.7367 19.0005 14.0717V11.2492C19.0005 10.3873 18.6581 9.5606 18.0486 8.95111C17.4391 8.34162 16.6124 7.99921 15.7505 7.99921H14.178C13.518 8.00046 12.8748 8.20685 12.3373 8.58981C11.7998 8.97276 11.3947 9.51334 11.178 10.1367H11.1555C10.613 9.88671 9.77549 10.0192 9.12049 10.4417C8.77504 10.6559 8.49054 10.9553 8.29438 11.3113C8.09822 11.6673 7.99701 12.0678 8.00049 12.4742C7.98427 12.8686 8.05313 13.2618 8.20238 13.6272C8.35164 13.9925 8.5778 14.3215 8.86549 14.5917C9.47971 15.1 10.2357 15.4064 11.0305 15.4692C11.0715 16.1247 11.0632 16.7824 11.0055 17.4367C10.8405 18.7442 10.358 19.1517 9.55799 19.8267C9.28299 20.0567 8.97299 20.3267 8.64799 20.6467C8.03049 21.2617 7.97549 22.4417 7.98799 22.9992H6.00049V5.99921H23.0005V22.9992Z" fill="black"/>
<path d="M3.5 18H1V1H18V3.5C18 3.63261 18.0527 3.75979 18.1464 3.85355C18.2402 3.94732 18.3674 4 18.5 4C18.6326 4 18.7598 3.94732 18.8536 3.85355C18.9473 3.75979 19 3.63261 19 3.5V0.5C19 0.367392 18.9473 0.240215 18.8536 0.146447C18.7598 0.0526785 18.6326 0 18.5 0H0.5C0.367392 0 0.240215 0.0526785 0.146447 0.146447C0.0526785 0.240215 0 0.367392 0 0.5V18.5C0 18.6326 0.0526785 18.7598 0.146447 18.8536C0.240215 18.9473 0.367392 19 0.5 19H3.5C3.63261 19 3.75979 18.9473 3.85355 18.8536C3.94732 18.7598 4 18.6326 4 18.5C4 18.3674 3.94732 18.2402 3.85355 18.1464C3.75979 18.0527 3.63261 18 3.5 18Z" fill="black"/>
<path d="M14.5005 11.9992C14.7766 11.9992 15.0005 11.7753 15.0005 11.4992C15.0005 11.2231 14.7766 10.9992 14.5005 10.9992C14.2243 10.9992 14.0005 11.2231 14.0005 11.4992C14.0005 11.7753 14.2243 11.9992 14.5005 11.9992Z" fill="black"/>
<path d="M16.4995 11.9992C16.7757 11.9992 16.9995 11.7753 16.9995 11.4992C16.9995 11.2231 16.7757 10.9992 16.4995 10.9992C16.2234 10.9992 15.9995 11.2231 15.9995 11.4992C15.9995 11.7753 16.2234 11.9992 16.4995 11.9992Z" fill="black"/>
</g>
<defs>
<clipPath id="clip0_2388_7390">
<rect width="24" height="24" fill="white"/>
</clipPath>
</defs>
</svg>
