<svg width="92" height="93" viewBox="0 0 92 93" fill="none" xmlns="http://www.w3.org/2000/svg">
<g clip-path="url(#clip0_2306_1354)">
<path d="M59.7168 67.5878H38.2793C34.2674 67.5878 31.0059 64.3218 31.0059 60.3045V38.8378C31.0059 34.8205 34.2674 31.5545 38.2793 31.5545H59.7168C63.7287 31.5545 66.9902 34.8205 66.9902 38.8378V60.3045C66.9902 64.3218 63.7287 67.5878 59.7168 67.5878ZM38.2793 33.8545C35.5384 33.8545 33.3027 36.0932 33.3027 38.8378V60.3045C33.3027 63.0492 35.5384 65.2878 38.2793 65.2878H59.7168C62.4577 65.2878 64.6934 63.0492 64.6934 60.3045V38.8378C64.6934 36.0932 62.4577 33.8545 59.7168 33.8545H38.2793ZM59.7168 61.4545H38.2793C37.6515 61.4545 37.1309 60.9332 37.1309 60.3045V38.8378C37.1309 38.2092 37.6515 37.6878 38.2793 37.6878H59.7168C60.3446 37.6878 60.8652 38.2092 60.8652 38.8378V60.3045C60.8652 60.9332 60.3446 61.4545 59.7168 61.4545ZM39.4277 59.1545H58.5684V39.9878H39.4277V59.1545ZM48.998 55.3212C45.8284 55.3212 43.2559 52.7452 43.2559 49.5712C43.2559 46.3972 45.8284 43.8212 48.998 43.8212C52.1677 43.8212 54.7402 46.3972 54.7402 49.5712C54.7402 52.7452 52.1677 55.3212 48.998 55.3212ZM48.998 46.1212C47.0993 46.1212 45.5527 47.6698 45.5527 49.5712C45.5527 51.4725 47.0993 53.0212 48.998 53.0212C50.8968 53.0212 52.4434 51.4725 52.4434 49.5712C52.4434 47.6698 50.8968 46.1212 48.998 46.1212ZM66.0409 15.7305C66.4849 15.2858 66.4849 14.5498 66.0409 14.1052C61.4777 9.53583 55.4293 7.02116 48.998 7.02116C42.5668 7.02116 36.5184 9.53583 31.9552 14.1052C31.5112 14.5498 31.5112 15.2858 31.9552 15.7305C32.3993 16.1752 33.1343 16.1752 33.5784 15.7305C37.7127 11.5905 43.1793 9.32116 48.998 9.32116C54.8168 9.32116 60.2834 11.5905 64.4177 15.7305C64.6474 15.9605 64.9384 16.0678 65.2293 16.0678C65.5202 16.0678 65.8112 15.9605 66.0409 15.7305ZM61.7227 20.0545C62.1668 19.6098 62.1668 18.8738 61.7227 18.4292C58.308 15.0252 53.7909 13.1545 48.998 13.1545C44.2052 13.1545 39.688 15.0252 36.2734 18.4292C35.8293 18.8738 35.8293 19.6098 36.2734 20.0545C36.7174 20.4992 37.4524 20.4992 37.8965 20.0545C40.8824 17.0798 44.8177 15.4545 48.998 15.4545C53.1784 15.4545 57.129 17.0952 60.0996 20.0545C60.3293 20.2845 60.6202 20.3918 60.9112 20.3918C61.2021 20.3918 61.493 20.2845 61.7227 20.0545ZM42.2299 24.3938C44.0368 22.5845 46.4409 21.5878 48.998 21.5878C51.5552 21.5878 53.9593 22.5845 55.7662 24.3938C56.2102 24.8385 56.9452 24.8385 57.3893 24.3938C57.8334 23.9492 57.8334 23.2132 57.3893 22.7685C55.1537 20.5298 52.1677 19.2878 48.998 19.2878C45.8284 19.2878 42.8424 20.5298 40.6068 22.7685C40.1627 23.2132 40.1627 23.9492 40.6068 24.3938C40.8365 24.6238 41.1274 24.7312 41.4184 24.7312C41.7093 24.7312 42.0002 24.6238 42.2299 24.3938ZM66.0409 85.0372C66.4849 84.5925 66.4849 83.8565 66.0409 83.4118C65.5968 82.9672 64.8618 82.9672 64.4177 83.4118C60.2834 87.5518 54.8168 89.8212 48.998 89.8212C43.1793 89.8212 37.7127 87.5518 33.5784 83.4118C33.1343 82.9672 32.3993 82.9672 31.9552 83.4118C31.5112 83.8565 31.5112 84.5925 31.9552 85.0372C36.5184 89.6065 42.5668 92.1212 48.998 92.1212C55.4293 92.1212 61.4777 89.6065 66.0409 85.0372ZM61.7227 80.7132C62.1668 80.2685 62.1668 79.5325 61.7227 79.0878C61.2787 78.6432 60.5437 78.6432 60.0996 79.0878C57.1137 82.0625 53.1784 83.6878 48.998 83.6878C44.8177 83.6878 40.8671 82.0472 37.8965 79.0878C37.4524 78.6432 36.7174 78.6432 36.2734 79.0878C35.8293 79.5325 35.8293 80.2685 36.2734 80.7132C39.688 84.1172 44.2052 85.9878 48.998 85.9878C53.7909 85.9878 58.308 84.1172 61.7227 80.7132ZM57.3893 76.3738C57.8334 75.9292 57.8334 75.1932 57.3893 74.7485C56.9452 74.3038 56.2102 74.3038 55.7662 74.7485C53.9593 76.5578 51.5552 77.5545 48.998 77.5545C46.4409 77.5545 44.0368 76.5578 42.2299 74.7485C41.7859 74.3038 41.0509 74.3038 40.6068 74.7485C40.1627 75.1932 40.1627 75.9292 40.6068 76.3738C42.8424 78.6125 45.8284 79.8545 48.998 79.8545C52.1677 79.8545 55.1537 78.6125 57.3893 76.3738ZM84.4159 66.6372C88.979 62.0678 91.4902 56.0112 91.4902 49.5712C91.4902 43.1312 88.979 37.0745 84.4159 32.5052C83.9718 32.0605 83.2368 32.0605 82.7927 32.5052C82.3487 32.9498 82.3487 33.6858 82.7927 34.1305C86.9271 38.2705 89.1934 43.7445 89.1934 49.5712C89.1934 55.3978 86.9271 60.8718 82.7927 65.0118C82.3487 65.4565 82.3487 66.1925 82.7927 66.6372C83.0224 66.8672 83.3134 66.9745 83.6043 66.9745C83.8952 66.9745 84.1862 66.8672 84.4159 66.6372ZM80.0977 62.3132C83.4971 58.8938 85.3652 54.3705 85.3652 49.5712C85.3652 44.7718 83.4971 40.2485 80.0977 36.8292C79.6537 36.3845 78.9187 36.3845 78.4746 36.8292C78.0305 37.2738 78.0305 38.0098 78.4746 38.4545C81.4452 41.4445 83.0684 45.3852 83.0684 49.5712C83.0684 53.7572 81.4299 57.6978 78.4746 60.6878C78.0305 61.1325 78.0305 61.8685 78.4746 62.3132C78.7043 62.5432 78.9952 62.6505 79.2862 62.6505C79.5771 62.6505 79.868 62.5432 80.0977 62.3132ZM75.7643 57.9738C77.9999 55.7352 79.2402 52.7452 79.2402 49.5712C79.2402 46.3972 77.9999 43.4072 75.7643 41.1685C75.3202 40.7238 74.5852 40.7238 74.1412 41.1685C73.6971 41.6132 73.6971 42.3492 74.1412 42.7938C75.948 44.6032 76.9434 47.0105 76.9434 49.5712C76.9434 52.1318 75.948 54.5392 74.1412 56.3485C73.6971 56.7932 73.6971 57.5292 74.1412 57.9738C74.3709 58.2038 74.6618 58.3112 74.9527 58.3112C75.2437 58.3112 75.5346 58.2038 75.7643 57.9738ZM15.2034 66.6372C15.6474 66.1925 15.6474 65.4565 15.2034 65.0118C11.069 60.8718 8.80273 55.3978 8.80273 49.5712C8.80273 43.7445 11.069 38.2705 15.2034 34.1305C15.6474 33.6858 15.6474 32.9498 15.2034 32.5052C14.7593 32.0605 14.0243 32.0605 13.5802 32.5052C9.01711 37.0745 6.50586 43.1312 6.50586 49.5712C6.50586 56.0112 9.01711 62.0678 13.5802 66.6372C13.8099 66.8672 14.1009 66.9745 14.3918 66.9745C14.6827 66.9745 14.9737 66.8672 15.2034 66.6372ZM19.5215 62.3132C19.9655 61.8685 19.9655 61.1325 19.5215 60.6878C16.5509 57.6978 14.9277 53.7572 14.9277 49.5712C14.9277 45.3852 16.5662 41.4292 19.5215 38.4545C19.9655 38.0098 19.9655 37.2738 19.5215 36.8292C19.0774 36.3845 18.3424 36.3845 17.8984 36.8292C14.499 40.2485 12.6309 44.7718 12.6309 49.5712C12.6309 54.3705 14.499 58.8938 17.8984 62.3132C18.128 62.5432 18.419 62.6505 18.7099 62.6505C19.0009 62.6505 19.2918 62.5432 19.5215 62.3132ZM23.8549 57.9738C24.299 57.5292 24.299 56.7932 23.8549 56.3485C22.048 54.5392 21.0527 52.1318 21.0527 49.5712C21.0527 47.0105 22.048 44.6032 23.8549 42.7938C24.299 42.3492 24.299 41.6132 23.8549 41.1685C23.4109 40.7238 22.6759 40.7238 22.2318 41.1685C19.9962 43.4072 18.7559 46.3972 18.7559 49.5712C18.7559 52.7452 19.9962 55.7352 22.2318 57.9738C22.4615 58.2038 22.7524 58.3112 23.0434 58.3112C23.3343 58.3112 23.6252 58.2038 23.8549 57.9738Z" fill="black"/>
</g>
<defs>
<clipPath id="clip0_2306_1354">
<rect width="92" height="92" fill="white" transform="translate(0 0.5)"/>
</clipPath>
</defs>
</svg>
