<svg width="563" height="285" viewBox="0 0 563 285" fill="none" xmlns="http://www.w3.org/2000/svg">
<path d="M25.98 7H29.36V21H25.98V7ZM28.1 9.78V7H30.84C32.0267 7 33.02 7.18667 33.82 7.56C34.6333 7.92 35.2467 8.44 35.66 9.12C36.0733 9.8 36.28 10.62 36.28 11.58C36.28 12.5133 36.0733 13.3267 35.66 14.02C35.2467 14.7 34.6333 15.2267 33.82 15.6C33.02 15.96 32.0267 16.14 30.84 16.14H28.1V13.36H30.84C31.52 13.36 32.0533 13.2067 32.44 12.9C32.8267 12.5933 33.02 12.1533 33.02 11.58C33.02 10.9933 32.8267 10.5467 32.44 10.24C32.0533 9.93333 31.52 9.78 30.84 9.78H28.1ZM40.9303 11.8V21H37.9503V11.8H40.9303ZM43.5903 14.92C43.4303 14.76 43.257 14.6333 43.0703 14.54C42.897 14.4467 42.677 14.4 42.4103 14.4C42.117 14.4 41.857 14.48 41.6303 14.64C41.4036 14.8 41.2303 15.0333 41.1103 15.34C40.9903 15.6467 40.9303 16.02 40.9303 16.46L40.2103 15.4C40.2103 14.6667 40.3503 14.0133 40.6303 13.44C40.9236 12.8667 41.3036 12.4133 41.7703 12.08C42.237 11.7467 42.7236 11.58 43.2303 11.58C43.5636 11.58 43.8836 11.6467 44.1903 11.78C44.497 11.9133 44.7303 12.1 44.8903 12.34L43.5903 14.92ZM46.193 8.34C46.193 7.86 46.3663 7.47333 46.713 7.18C47.0596 6.87333 47.473 6.72 47.953 6.72C48.4463 6.72 48.8596 6.87333 49.193 7.18C49.5396 7.47333 49.713 7.86 49.713 8.34C49.713 8.82 49.5396 9.21333 49.193 9.52C48.8596 9.82667 48.4463 9.98 47.953 9.98C47.473 9.98 47.0596 9.82667 46.713 9.52C46.3663 9.21333 46.193 8.82 46.193 8.34ZM46.493 11.8H49.413V21H46.493V11.8ZM54.6403 16.4C54.6403 16.8933 54.747 17.32 54.9603 17.68C55.1736 18.0267 55.467 18.3 55.8403 18.5C56.227 18.7 56.6403 18.8 57.0803 18.8C57.4536 18.8 57.807 18.7467 58.1403 18.64C58.487 18.52 58.8003 18.36 59.0803 18.16C59.3736 17.96 59.6136 17.7133 59.8003 17.42V20.36C59.4803 20.6133 59.0803 20.82 58.6003 20.98C58.1203 21.1267 57.5336 21.2 56.8403 21.2C55.827 21.2 54.9136 21 54.1003 20.6C53.3003 20.2 52.667 19.64 52.2003 18.92C51.747 18.2 51.5203 17.36 51.5203 16.4C51.5203 15.4267 51.747 14.5867 52.2003 13.88C52.667 13.16 53.3003 12.6 54.1003 12.2C54.9136 11.8 55.827 11.6 56.8403 11.6C57.5336 11.6 58.1203 11.68 58.6003 11.84C59.0803 11.9867 59.4803 12.1733 59.8003 12.4V15.36C59.6136 15.0667 59.367 14.82 59.0603 14.62C58.767 14.42 58.447 14.2667 58.1003 14.16C57.7536 14.0533 57.4136 14 57.0803 14C56.6403 14 56.227 14.1067 55.8403 14.32C55.467 14.5333 55.1736 14.82 54.9603 15.18C54.747 15.54 54.6403 15.9467 54.6403 16.4ZM66.8631 21.2C65.7965 21.2 64.8698 21.0067 64.0831 20.62C63.3098 20.22 62.7098 19.66 62.2831 18.94C61.8565 18.22 61.6431 17.3733 61.6431 16.4C61.6431 15.4133 61.8498 14.56 62.2631 13.84C62.6765 13.12 63.2698 12.5667 64.0431 12.18C64.8298 11.7933 65.7565 11.6 66.8231 11.6C67.8898 11.6 68.7898 11.7867 69.5231 12.16C70.2565 12.52 70.8165 13.0467 71.2031 13.74C71.5898 14.4333 71.7831 15.2733 71.7831 16.26C71.7831 16.4067 71.7831 16.5533 71.7831 16.7C71.7831 16.8333 71.7698 16.9467 71.7431 17.04H63.3431V15.36H69.0231L68.3031 16.28C68.3698 16.1867 68.4231 16.0733 68.4631 15.94C68.5165 15.7933 68.5431 15.6733 68.5431 15.58C68.5431 15.18 68.4698 14.8333 68.3231 14.54C68.1765 14.2467 67.9698 14.02 67.7031 13.86C67.4365 13.7 67.1231 13.62 66.7631 13.62C66.3098 13.62 65.9298 13.72 65.6231 13.92C65.3165 14.12 65.0831 14.4267 64.9231 14.84C64.7765 15.24 64.6965 15.7467 64.6831 16.36C64.6831 16.92 64.7631 17.4 64.9231 17.8C65.0831 18.2 65.3231 18.5067 65.6431 18.72C65.9631 18.92 66.3565 19.02 66.8231 19.02C67.3565 19.02 67.8098 18.92 68.1831 18.72C68.5698 18.52 68.8765 18.22 69.1031 17.82L71.8031 18.48C71.3231 19.3867 70.6698 20.0667 69.8431 20.52C69.0298 20.9733 68.0365 21.2 66.8631 21.2ZM83.0841 5.4V21H80.0441V5.4H83.0841ZM86.0241 15.4C86.0241 14.8533 85.9241 14.4333 85.7241 14.14C85.5241 13.8467 85.1774 13.7 84.6841 13.7C84.3641 13.7 84.0841 13.7733 83.8441 13.92C83.6041 14.0533 83.4174 14.2467 83.2841 14.5C83.1507 14.74 83.0841 15.04 83.0841 15.4H82.5641C82.5641 14.6667 82.6841 14.0067 82.9241 13.42C83.1641 12.82 83.5241 12.3467 84.0041 12C84.4974 11.64 85.1241 11.46 85.8841 11.46C86.6441 11.46 87.2507 11.5933 87.7041 11.86C88.1707 12.1267 88.5107 12.52 88.7241 13.04C88.9374 13.56 89.0441 14.2 89.0441 14.96V21H86.0241V15.4ZM91.4508 8.34C91.4508 7.86 91.6241 7.47333 91.9708 7.18C92.3174 6.87333 92.7308 6.72 93.2108 6.72C93.7041 6.72 94.1174 6.87333 94.4508 7.18C94.7974 7.47333 94.9708 7.86 94.9708 8.34C94.9708 8.82 94.7974 9.21333 94.4508 9.52C94.1174 9.82667 93.7041 9.98 93.2108 9.98C92.7308 9.98 92.3174 9.82667 91.9708 9.52C91.6241 9.21333 91.4508 8.82 91.4508 8.34ZM91.7508 11.8H94.6708V21H91.7508V11.8ZM97.8581 17.66C98.3248 18.0467 98.7448 18.3533 99.1181 18.58C99.5048 18.7933 99.8448 18.9467 100.138 19.04C100.431 19.12 100.685 19.16 100.898 19.16C101.205 19.16 101.431 19.0933 101.578 18.96C101.725 18.8267 101.798 18.6533 101.798 18.44C101.798 18.24 101.738 18.0733 101.618 17.94C101.498 17.7933 101.291 17.6533 100.998 17.52C100.718 17.3867 100.331 17.2467 99.8381 17.1C99.3981 16.94 98.9781 16.7533 98.5781 16.54C98.1915 16.3133 97.8715 16.0133 97.6181 15.64C97.3648 15.2667 97.2381 14.7867 97.2381 14.2C97.2381 13.64 97.3848 13.1667 97.6781 12.78C97.9848 12.3933 98.3915 12.1 98.8981 11.9C99.4181 11.7 100.011 11.6 100.678 11.6C101.211 11.6 101.705 11.66 102.158 11.78C102.625 11.9 103.058 12.06 103.458 12.26C103.871 12.46 104.258 12.6933 104.618 12.96L103.538 14.92C103.151 14.56 102.711 14.2667 102.218 14.04C101.725 13.8 101.271 13.68 100.858 13.68C100.578 13.68 100.365 13.7333 100.218 13.84C100.085 13.9467 100.018 14.0867 100.018 14.26C100.018 14.46 100.098 14.6267 100.258 14.76C100.431 14.8933 100.671 15.02 100.978 15.14C101.298 15.2467 101.685 15.3867 102.138 15.56C102.618 15.7333 103.058 15.9333 103.458 16.16C103.871 16.3867 104.198 16.6733 104.438 17.02C104.691 17.3667 104.818 17.8267 104.818 18.4C104.818 19.3867 104.511 20.1333 103.898 20.64C103.298 21.1333 102.451 21.38 101.358 21.38C100.691 21.38 100.071 21.3 99.4981 21.14C98.9381 20.9933 98.4181 20.7933 97.9381 20.54C97.4581 20.2733 97.0115 19.98 96.5981 19.66L97.8581 17.66ZM105.599 11.8H111.759V14.3H105.599V11.8ZM107.219 8.6H110.119V21H107.219V8.6ZM112.706 16.4C112.706 15.4267 112.933 14.58 113.386 13.86C113.84 13.14 114.466 12.58 115.266 12.18C116.066 11.78 116.966 11.58 117.966 11.58C118.966 11.58 119.86 11.78 120.646 12.18C121.446 12.58 122.073 13.14 122.526 13.86C122.993 14.58 123.226 15.4267 123.226 16.4C123.226 17.36 122.993 18.2 122.526 18.92C122.073 19.64 121.446 20.2 120.646 20.6C119.86 21 118.966 21.2 117.966 21.2C116.966 21.2 116.066 21 115.266 20.6C114.466 20.2 113.84 19.64 113.386 18.92C112.933 18.2 112.706 17.36 112.706 16.4ZM115.806 16.4C115.806 16.88 115.906 17.2933 116.106 17.64C116.306 17.9733 116.566 18.2333 116.886 18.42C117.206 18.6067 117.566 18.7 117.966 18.7C118.353 18.7 118.706 18.6067 119.026 18.42C119.36 18.2333 119.62 17.9733 119.806 17.64C120.006 17.2933 120.106 16.88 120.106 16.4C120.106 15.92 120.006 15.5067 119.806 15.16C119.62 14.8133 119.36 14.5467 119.026 14.36C118.706 14.1733 118.353 14.08 117.966 14.08C117.566 14.08 117.206 14.1733 116.886 14.36C116.566 14.5467 116.306 14.8133 116.106 15.16C115.906 15.5067 115.806 15.92 115.806 16.4ZM128.223 11.8V21H125.243V11.8H128.223ZM130.883 14.92C130.723 14.76 130.55 14.6333 130.363 14.54C130.19 14.4467 129.97 14.4 129.703 14.4C129.41 14.4 129.15 14.48 128.923 14.64C128.697 14.8 128.523 15.0333 128.403 15.34C128.283 15.6467 128.223 16.02 128.223 16.46L127.503 15.4C127.503 14.6667 127.643 14.0133 127.923 13.44C128.217 12.8667 128.597 12.4133 129.063 12.08C129.53 11.7467 130.017 11.58 130.523 11.58C130.857 11.58 131.177 11.6467 131.483 11.78C131.79 11.9133 132.023 12.1 132.183 12.34L130.883 14.92ZM143.691 11.8L137.691 25.4H134.651L136.891 20.26L132.911 11.8H136.231L139.211 19.18L137.651 19.16L140.591 11.8H143.691Z" fill="#899197"/>
<rect x="25" y="39.5" width="513" height="36" rx="7.5" fill="#EEEEEE"/>
<path d="M77.4592 53.6H78.4792V62H77.4592V53.6ZM79.9792 62H78.0232V60.98H79.9792C80.4512 60.98 80.8832 60.908 81.2752 60.764C81.6672 60.612 82.0032 60.4 82.2832 60.128C82.5632 59.848 82.7792 59.512 82.9312 59.12C83.0832 58.728 83.1592 58.288 83.1592 57.8C83.1592 57.312 83.0832 56.872 82.9312 56.48C82.7792 56.088 82.5632 55.756 82.2832 55.484C82.0032 55.204 81.6672 54.992 81.2752 54.848C80.8832 54.696 80.4512 54.62 79.9792 54.62H78.0232V53.6H79.9792C80.7952 53.6 81.5192 53.776 82.1512 54.128C82.7832 54.48 83.2792 54.972 83.6392 55.604C83.9992 56.228 84.1792 56.96 84.1792 57.8C84.1792 58.64 83.9992 59.376 83.6392 60.008C83.2792 60.632 82.7832 61.12 82.1512 61.472C81.5192 61.824 80.7952 62 79.9792 62ZM86.5875 60.296C86.5875 60.504 86.6355 60.684 86.7315 60.836C86.8355 60.988 86.9755 61.104 87.1515 61.184C87.3355 61.256 87.5435 61.292 87.7755 61.292C88.0715 61.292 88.3355 61.232 88.5675 61.112C88.8075 60.992 88.9955 60.824 89.1315 60.608C89.2755 60.384 89.3475 60.128 89.3475 59.84L89.5395 60.56C89.5395 60.912 89.4315 61.204 89.2155 61.436C89.0075 61.668 88.7475 61.84 88.4355 61.952C88.1315 62.064 87.8275 62.12 87.5235 62.12C87.1875 62.12 86.8715 62.052 86.5755 61.916C86.2875 61.772 86.0555 61.568 85.8795 61.304C85.7035 61.04 85.6155 60.72 85.6155 60.344C85.6155 59.808 85.8035 59.38 86.1795 59.06C86.5635 58.732 87.0955 58.568 87.7755 58.568C88.1755 58.568 88.5075 58.616 88.7715 58.712C89.0435 58.8 89.2595 58.904 89.4195 59.024C89.5795 59.136 89.6875 59.228 89.7435 59.3V59.864C89.4635 59.672 89.1755 59.536 88.8795 59.456C88.5835 59.368 88.2675 59.324 87.9315 59.324C87.6195 59.324 87.3635 59.364 87.1635 59.444C86.9715 59.524 86.8275 59.636 86.7315 59.78C86.6355 59.924 86.5875 60.096 86.5875 60.296ZM86.4435 57.752L85.9755 57.044C86.1835 56.892 86.4675 56.74 86.8275 56.588C87.1955 56.436 87.6355 56.36 88.1475 56.36C88.5795 56.36 88.9555 56.428 89.2755 56.564C89.6035 56.692 89.8555 56.88 90.0315 57.128C90.2155 57.376 90.3075 57.68 90.3075 58.04V62H89.3475V58.172C89.3475 57.98 89.3155 57.824 89.2515 57.704C89.1875 57.576 89.0955 57.476 88.9755 57.404C88.8635 57.332 88.7315 57.28 88.5795 57.248C88.4275 57.216 88.2675 57.2 88.0995 57.2C87.8275 57.2 87.5795 57.232 87.3555 57.296C87.1395 57.36 86.9555 57.436 86.8035 57.524C86.6515 57.612 86.5315 57.688 86.4435 57.752ZM92.5328 54.2C92.5328 54.016 92.5968 53.86 92.7248 53.732C92.8608 53.604 93.0168 53.54 93.1928 53.54C93.3768 53.54 93.5328 53.604 93.6608 53.732C93.7888 53.86 93.8528 54.016 93.8528 54.2C93.8528 54.376 93.7888 54.532 93.6608 54.668C93.5328 54.796 93.3768 54.86 93.1928 54.86C93.0168 54.86 92.8608 54.796 92.7248 54.668C92.5968 54.532 92.5328 54.376 92.5328 54.2ZM92.7128 56.48H93.6728V62H92.7128V56.48ZM96.25 52.64H97.21V62H96.25V52.64ZM103.996 56.48L100.396 64.64H99.3156L100.828 61.22L98.7156 56.48H99.8556L101.608 60.8L101.212 60.752L102.916 56.48H103.996Z" fill="#484848"/>
<g filter="url(#filter0_d_1215_35363)">
<rect x="154" y="41" width="127.5" height="33" rx="8" fill="white" shape-rendering="crispEdges"/>
<path d="M206.381 59.78L208.565 53.6H209.705L206.405 62.42L203.885 55.892L201.365 62.42L198.065 53.6H199.205L201.437 59.78L203.885 53.18L206.381 59.78ZM212.503 62.12C211.991 62.12 211.535 62 211.135 61.76C210.743 61.512 210.435 61.172 210.211 60.74C209.995 60.308 209.887 59.808 209.887 59.24C209.887 58.664 209.999 58.16 210.223 57.728C210.455 57.296 210.775 56.96 211.183 56.72C211.599 56.48 212.079 56.36 212.623 56.36C213.167 56.36 213.631 56.476 214.015 56.708C214.407 56.932 214.707 57.256 214.915 57.68C215.123 58.104 215.227 58.608 215.227 59.192C215.227 59.248 215.223 59.308 215.215 59.372C215.215 59.428 215.215 59.464 215.215 59.48H210.499V58.664H214.459L214.075 59.216C214.099 59.176 214.123 59.116 214.147 59.036C214.171 58.948 214.183 58.876 214.183 58.82C214.183 58.492 214.115 58.208 213.979 57.968C213.851 57.728 213.671 57.54 213.439 57.404C213.207 57.268 212.935 57.2 212.623 57.2C212.255 57.2 211.939 57.28 211.675 57.44C211.419 57.592 211.219 57.816 211.075 58.112C210.939 58.4 210.867 58.756 210.859 59.18C210.859 59.612 210.927 59.98 211.063 60.284C211.199 60.588 211.399 60.82 211.663 60.98C211.927 61.14 212.247 61.22 212.623 61.22C212.999 61.22 213.331 61.14 213.619 60.98C213.907 60.812 214.151 60.56 214.351 60.224L215.131 60.716C214.843 61.18 214.479 61.532 214.039 61.772C213.607 62.004 213.095 62.12 212.503 62.12ZM219.279 62.12C218.767 62.12 218.311 62 217.911 61.76C217.519 61.512 217.211 61.172 216.987 60.74C216.771 60.308 216.663 59.808 216.663 59.24C216.663 58.664 216.775 58.16 216.999 57.728C217.231 57.296 217.551 56.96 217.959 56.72C218.375 56.48 218.855 56.36 219.399 56.36C219.943 56.36 220.407 56.476 220.791 56.708C221.183 56.932 221.483 57.256 221.691 57.68C221.899 58.104 222.003 58.608 222.003 59.192C222.003 59.248 221.999 59.308 221.991 59.372C221.991 59.428 221.991 59.464 221.991 59.48H217.275V58.664H221.235L220.851 59.216C220.875 59.176 220.899 59.116 220.923 59.036C220.947 58.948 220.959 58.876 220.959 58.82C220.959 58.492 220.891 58.208 220.755 57.968C220.627 57.728 220.447 57.54 220.215 57.404C219.983 57.268 219.711 57.2 219.399 57.2C219.031 57.2 218.715 57.28 218.451 57.44C218.195 57.592 217.995 57.816 217.851 58.112C217.715 58.4 217.643 58.756 217.635 59.18C217.635 59.612 217.703 59.98 217.839 60.284C217.975 60.588 218.175 60.82 218.439 60.98C218.703 61.14 219.023 61.22 219.399 61.22C219.775 61.22 220.107 61.14 220.395 60.98C220.683 60.812 220.927 60.56 221.127 60.224L221.907 60.716C221.619 61.18 221.255 61.532 220.815 61.772C220.383 62.004 219.871 62.12 219.279 62.12ZM223.859 52.64H224.819V62H223.859V52.64ZM226.859 56.48H228.059L225.659 58.76L228.299 62H227.099L224.459 58.76L226.859 56.48ZM229.804 52.64H230.764V62H229.804V52.64ZM237.55 56.48L233.95 64.64H232.87L234.382 61.22L232.27 56.48H233.41L235.162 60.8L234.766 60.752L236.47 56.48H237.55Z" fill="#26262A"/>
<rect x="154.5" y="41.5" width="126.5" height="32" rx="7.5" stroke="#E2E2E2" shape-rendering="crispEdges"/>
</g>
<path d="M329.122 56.324L328.498 62H327.478L328.498 53.18L331.858 59.264L335.218 53.18L336.238 62H335.218L334.594 56.324L331.858 61.22L329.122 56.324ZM337.733 59.24C337.733 58.68 337.857 58.184 338.105 57.752C338.361 57.32 338.705 56.98 339.137 56.732C339.569 56.484 340.053 56.36 340.589 56.36C341.133 56.36 341.617 56.484 342.041 56.732C342.473 56.98 342.813 57.32 343.061 57.752C343.317 58.184 343.445 58.68 343.445 59.24C343.445 59.792 343.317 60.288 343.061 60.728C342.813 61.16 342.473 61.5 342.041 61.748C341.617 61.996 341.133 62.12 340.589 62.12C340.053 62.12 339.569 61.996 339.137 61.748C338.705 61.5 338.361 61.16 338.105 60.728C337.857 60.288 337.733 59.792 337.733 59.24ZM338.705 59.24C338.705 59.624 338.785 59.964 338.945 60.26C339.113 60.556 339.337 60.792 339.617 60.968C339.905 61.136 340.229 61.22 340.589 61.22C340.949 61.22 341.269 61.136 341.549 60.968C341.837 60.792 342.061 60.556 342.221 60.26C342.389 59.964 342.473 59.624 342.473 59.24C342.473 58.856 342.389 58.516 342.221 58.22C342.061 57.916 341.837 57.68 341.549 57.512C341.269 57.344 340.949 57.26 340.589 57.26C340.229 57.26 339.905 57.344 339.617 57.512C339.337 57.68 339.113 57.916 338.945 58.22C338.785 58.516 338.705 58.856 338.705 59.24ZM348.904 58.64C348.904 58.184 348.804 57.84 348.604 57.608C348.404 57.376 348.112 57.26 347.728 57.26C347.448 57.26 347.2 57.32 346.984 57.44C346.776 57.552 346.612 57.712 346.492 57.92C346.38 58.128 346.324 58.368 346.324 58.64V62H345.364V56.48H346.324V57.344C346.508 57.008 346.736 56.76 347.008 56.6C347.288 56.44 347.608 56.36 347.968 56.36C348.552 56.36 349.012 56.556 349.348 56.948C349.692 57.332 349.864 57.856 349.864 58.52V62H348.904V58.64ZM351.428 56.48H354.188V57.38H351.428V56.48ZM352.328 54.56H353.288V62H352.328V54.56ZM355.751 52.64H356.711V62H355.751V52.64ZM363.497 56.48L359.897 64.64H358.817L360.329 61.22L358.217 56.48H359.357L361.109 60.8L360.713 60.752L362.417 56.48H363.497Z" fill="#484848"/>
<path d="M461.958 53.6H463.098L460.302 58.376V62H459.282V58.388L456.486 53.6H457.626L459.786 57.488L461.958 53.6ZM465.593 62.12C465.081 62.12 464.625 62 464.225 61.76C463.833 61.512 463.525 61.172 463.301 60.74C463.085 60.308 462.977 59.808 462.977 59.24C462.977 58.664 463.089 58.16 463.313 57.728C463.545 57.296 463.865 56.96 464.273 56.72C464.689 56.48 465.169 56.36 465.713 56.36C466.257 56.36 466.721 56.476 467.105 56.708C467.497 56.932 467.797 57.256 468.005 57.68C468.213 58.104 468.317 58.608 468.317 59.192C468.317 59.248 468.313 59.308 468.305 59.372C468.305 59.428 468.305 59.464 468.305 59.48H463.589V58.664H467.549L467.165 59.216C467.189 59.176 467.213 59.116 467.237 59.036C467.261 58.948 467.273 58.876 467.273 58.82C467.273 58.492 467.205 58.208 467.069 57.968C466.941 57.728 466.761 57.54 466.529 57.404C466.297 57.268 466.025 57.2 465.713 57.2C465.345 57.2 465.029 57.28 464.765 57.44C464.509 57.592 464.309 57.816 464.165 58.112C464.029 58.4 463.957 58.756 463.949 59.18C463.949 59.612 464.017 59.98 464.153 60.284C464.289 60.588 464.489 60.82 464.753 60.98C465.017 61.14 465.337 61.22 465.713 61.22C466.089 61.22 466.421 61.14 466.709 60.98C466.997 60.812 467.241 60.56 467.441 60.224L468.221 60.716C467.933 61.18 467.569 61.532 467.129 61.772C466.697 62.004 466.185 62.12 465.593 62.12ZM470.665 60.296C470.665 60.504 470.713 60.684 470.809 60.836C470.913 60.988 471.053 61.104 471.229 61.184C471.413 61.256 471.621 61.292 471.853 61.292C472.149 61.292 472.413 61.232 472.645 61.112C472.885 60.992 473.073 60.824 473.209 60.608C473.353 60.384 473.425 60.128 473.425 59.84L473.617 60.56C473.617 60.912 473.509 61.204 473.293 61.436C473.085 61.668 472.825 61.84 472.513 61.952C472.209 62.064 471.905 62.12 471.601 62.12C471.265 62.12 470.949 62.052 470.653 61.916C470.365 61.772 470.133 61.568 469.957 61.304C469.781 61.04 469.693 60.72 469.693 60.344C469.693 59.808 469.881 59.38 470.257 59.06C470.641 58.732 471.173 58.568 471.853 58.568C472.253 58.568 472.585 58.616 472.849 58.712C473.121 58.8 473.337 58.904 473.497 59.024C473.657 59.136 473.765 59.228 473.821 59.3V59.864C473.541 59.672 473.253 59.536 472.957 59.456C472.661 59.368 472.345 59.324 472.009 59.324C471.697 59.324 471.441 59.364 471.241 59.444C471.049 59.524 470.905 59.636 470.809 59.78C470.713 59.924 470.665 60.096 470.665 60.296ZM470.521 57.752L470.053 57.044C470.261 56.892 470.545 56.74 470.905 56.588C471.273 56.436 471.713 56.36 472.225 56.36C472.657 56.36 473.033 56.428 473.353 56.564C473.681 56.692 473.933 56.88 474.109 57.128C474.293 57.376 474.385 57.68 474.385 58.04V62H473.425V58.172C473.425 57.98 473.393 57.824 473.329 57.704C473.265 57.576 473.173 57.476 473.053 57.404C472.941 57.332 472.809 57.28 472.657 57.248C472.505 57.216 472.345 57.2 472.177 57.2C471.905 57.2 471.657 57.232 471.433 57.296C471.217 57.36 471.033 57.436 470.881 57.524C470.729 57.612 470.609 57.688 470.521 57.752ZM477.57 56.48V62H476.61V56.48H477.57ZM479.238 57.536C479.11 57.44 478.994 57.372 478.89 57.332C478.786 57.284 478.654 57.26 478.494 57.26C478.254 57.26 478.066 57.32 477.93 57.44C477.794 57.56 477.698 57.724 477.642 57.932C477.594 58.14 477.57 58.376 477.57 58.64H477.138C477.138 58.2 477.214 57.812 477.366 57.476C477.526 57.132 477.73 56.86 477.978 56.66C478.226 56.46 478.478 56.36 478.734 56.36C478.934 56.36 479.118 56.388 479.286 56.444C479.462 56.492 479.622 56.592 479.766 56.744L479.238 57.536ZM481.323 52.64H482.283V62H481.323V52.64ZM489.069 56.48L485.469 64.64H484.389L485.901 61.22L483.789 56.48H484.929L486.681 60.8L486.285 60.752L487.989 56.48H489.069Z" fill="#484848"/>
<rect x="25" y="39.5" width="513" height="36" rx="7.5" stroke="#EEEEEE"/>
<path d="M43.0426 132.032C43.0426 132.224 43.0826 132.392 43.1626 132.536C43.248 132.675 43.36 132.784 43.4986 132.864C43.6426 132.939 43.8053 132.976 43.9866 132.976C44.1626 132.976 44.32 132.939 44.4586 132.864C44.6026 132.784 44.7146 132.675 44.7946 132.536C44.88 132.392 44.9226 132.224 44.9226 132.032C44.9226 131.845 44.88 131.68 44.7946 131.536C44.7146 131.392 44.6026 131.28 44.4586 131.2C44.32 131.12 44.1626 131.08 43.9866 131.08C43.8053 131.08 43.6426 131.12 43.4986 131.2C43.36 131.28 43.248 131.392 43.1626 131.536C43.0826 131.68 43.0426 131.845 43.0426 132.032ZM43.9706 128.424H45.6826L43.8746 130.448L43.5946 130.568C43.744 130.419 43.8853 130.323 44.0186 130.28C44.1573 130.237 44.328 130.216 44.5306 130.216C44.7386 130.216 44.944 130.259 45.1466 130.344C45.3546 130.424 45.5413 130.544 45.7066 130.704C45.8773 130.859 46.0106 131.048 46.1066 131.272C46.208 131.496 46.2586 131.749 46.2586 132.032C46.2586 132.491 46.1546 132.877 45.9466 133.192C45.744 133.501 45.4693 133.736 45.1226 133.896C44.7813 134.051 44.4026 134.128 43.9866 134.128C43.5653 134.128 43.1813 134.051 42.8346 133.896C42.4933 133.736 42.2186 133.501 42.0106 133.192C41.808 132.877 41.7066 132.491 41.7066 132.032C41.7066 131.733 41.768 131.456 41.8906 131.2C42.0186 130.944 42.1733 130.704 42.3546 130.48L43.9706 128.424ZM48.3622 131.2C48.3622 131.461 48.3862 131.701 48.4342 131.92C48.4822 132.133 48.5515 132.317 48.6422 132.472C48.7329 132.621 48.8395 132.739 48.9622 132.824C49.0902 132.904 49.2315 132.944 49.3862 132.944C49.5409 132.944 49.6795 132.904 49.8022 132.824C49.9302 132.739 50.0395 132.621 50.1302 132.472C50.2209 132.317 50.2902 132.133 50.3382 131.92C50.3862 131.701 50.4102 131.461 50.4102 131.2C50.4102 130.939 50.3862 130.701 50.3382 130.488C50.2902 130.269 50.2209 130.085 50.1302 129.936C50.0395 129.781 49.9302 129.664 49.8022 129.584C49.6795 129.499 49.5409 129.456 49.3862 129.456C49.2315 129.456 49.0902 129.499 48.9622 129.584C48.8395 129.664 48.7329 129.781 48.6422 129.936C48.5515 130.085 48.4822 130.269 48.4342 130.488C48.3862 130.701 48.3622 130.939 48.3622 131.2ZM47.0582 131.2C47.0582 130.592 47.1542 130.072 47.3462 129.64C47.5435 129.208 47.8182 128.877 48.1702 128.648C48.5222 128.413 48.9275 128.296 49.3862 128.296C49.8662 128.296 50.2795 128.413 50.6262 128.648C50.9729 128.877 51.2395 129.208 51.4262 129.64C51.6182 130.072 51.7142 130.592 51.7142 131.2C51.7142 131.808 51.6182 132.328 51.4262 132.76C51.2395 133.192 50.9729 133.525 50.6262 133.76C50.2795 133.989 49.8662 134.104 49.3862 134.104C48.9275 134.104 48.5222 133.989 48.1702 133.76C47.8182 133.525 47.5435 133.192 47.3462 132.76C47.1542 132.328 47.0582 131.808 47.0582 131.2ZM52.7071 128.4H54.1071V134H52.7071V128.4ZM56.0111 128.4H57.5951L55.3231 131.024L57.7151 134H56.0751L53.7151 131.064L56.0111 128.4Z" fill="#899197"/>
<rect x="62.3066" y="136" width="438.387" height="1" fill="#C6C7C8"/>
<path d="M506.429 132.032C506.429 132.224 506.469 132.392 506.549 132.536C506.635 132.675 506.747 132.784 506.885 132.864C507.029 132.939 507.192 132.976 507.373 132.976C507.549 132.976 507.707 132.939 507.845 132.864C507.989 132.784 508.101 132.675 508.181 132.536C508.267 132.392 508.309 132.224 508.309 132.032C508.309 131.845 508.267 131.68 508.181 131.536C508.101 131.392 507.989 131.28 507.845 131.2C507.707 131.12 507.549 131.08 507.373 131.08C507.192 131.08 507.029 131.12 506.885 131.2C506.747 131.28 506.635 131.392 506.549 131.536C506.469 131.68 506.429 131.845 506.429 132.032ZM507.357 128.424H509.069L507.261 130.448L506.981 130.568C507.131 130.419 507.272 130.323 507.405 130.28C507.544 130.237 507.715 130.216 507.917 130.216C508.125 130.216 508.331 130.259 508.533 130.344C508.741 130.424 508.928 130.544 509.093 130.704C509.264 130.859 509.397 131.048 509.493 131.272C509.595 131.496 509.645 131.749 509.645 132.032C509.645 132.491 509.541 132.877 509.333 133.192C509.131 133.501 508.856 133.736 508.509 133.896C508.168 134.051 507.789 134.128 507.373 134.128C506.952 134.128 506.568 134.051 506.221 133.896C505.88 133.736 505.605 133.501 505.397 133.192C505.195 132.877 505.093 132.491 505.093 132.032C505.093 131.733 505.155 131.456 505.277 131.2C505.405 130.944 505.56 130.704 505.741 130.48L507.357 128.424ZM511.749 131.2C511.749 131.461 511.773 131.701 511.821 131.92C511.869 132.133 511.938 132.317 512.029 132.472C512.12 132.621 512.226 132.739 512.349 132.824C512.477 132.904 512.618 132.944 512.773 132.944C512.928 132.944 513.066 132.904 513.189 132.824C513.317 132.739 513.426 132.621 513.517 132.472C513.608 132.317 513.677 132.133 513.725 131.92C513.773 131.701 513.797 131.461 513.797 131.2C513.797 130.939 513.773 130.701 513.725 130.488C513.677 130.269 513.608 130.085 513.517 129.936C513.426 129.781 513.317 129.664 513.189 129.584C513.066 129.499 512.928 129.456 512.773 129.456C512.618 129.456 512.477 129.499 512.349 129.584C512.226 129.664 512.12 129.781 512.029 129.936C511.938 130.085 511.869 130.269 511.821 130.488C511.773 130.701 511.749 130.939 511.749 131.2ZM510.445 131.2C510.445 130.592 510.541 130.072 510.733 129.64C510.93 129.208 511.205 128.877 511.557 128.648C511.909 128.413 512.314 128.296 512.773 128.296C513.253 128.296 513.666 128.413 514.013 128.648C514.36 128.877 514.626 129.208 514.813 129.64C515.005 130.072 515.101 130.592 515.101 131.2C515.101 131.808 515.005 132.328 514.813 132.76C514.626 133.192 514.36 133.525 514.013 133.76C513.666 133.989 513.253 134.104 512.773 134.104C512.314 134.104 511.909 133.989 511.557 133.76C511.205 133.525 510.93 133.192 510.733 132.76C510.541 132.328 510.445 131.808 510.445 131.2ZM516.094 128.4H517.494V134H516.094V128.4ZM519.398 128.4H520.982L518.71 131.024L521.102 134H519.462L517.102 131.064L519.398 128.4Z" fill="#899197"/>
<path d="M46.1466 164.208C46.1466 164.539 46.08 164.824 45.9466 165.064C45.8186 165.304 45.6426 165.501 45.4186 165.656C45.2 165.811 44.9573 165.925 44.6906 166C44.4293 166.069 44.1626 166.104 43.8906 166.104C43.5493 166.104 43.24 166.069 42.9626 166C42.6853 165.936 42.44 165.851 42.2266 165.744C42.0133 165.632 41.8186 165.509 41.6426 165.376L42.1706 164.264C42.3253 164.392 42.4826 164.501 42.6426 164.592C42.808 164.677 42.9733 164.747 43.1386 164.8C43.304 164.848 43.4533 164.872 43.5866 164.872C43.816 164.872 44.0106 164.843 44.1706 164.784C44.3306 164.725 44.4533 164.635 44.5386 164.512C44.624 164.389 44.6666 164.24 44.6666 164.064C44.6666 163.877 44.6133 163.728 44.5066 163.616C44.4053 163.499 44.272 163.413 44.1066 163.36C43.9466 163.307 43.7733 163.28 43.5866 163.28C43.4426 163.28 43.2826 163.291 43.1066 163.312C42.936 163.328 42.7573 163.363 42.5706 163.416C42.3893 163.464 42.2026 163.536 42.0106 163.632L42.7946 160.4H46.0266V161.568H43.7866L43.4666 162.568C43.616 162.499 43.7706 162.451 43.9306 162.424C44.096 162.392 44.2666 162.376 44.4426 162.376C44.7413 162.376 45.0186 162.448 45.2746 162.592C45.536 162.736 45.7466 162.944 45.9066 163.216C46.0666 163.488 46.1466 163.819 46.1466 164.208ZM48.1669 163.2C48.1669 163.461 48.1909 163.701 48.2389 163.92C48.2869 164.133 48.3562 164.317 48.4469 164.472C48.5376 164.621 48.6442 164.739 48.7669 164.824C48.8949 164.904 49.0362 164.944 49.1909 164.944C49.3456 164.944 49.4842 164.904 49.6069 164.824C49.7349 164.739 49.8442 164.621 49.9349 164.472C50.0256 164.317 50.0949 164.133 50.1429 163.92C50.1909 163.701 50.2149 163.461 50.2149 163.2C50.2149 162.939 50.1909 162.701 50.1429 162.488C50.0949 162.269 50.0256 162.085 49.9349 161.936C49.8442 161.781 49.7349 161.664 49.6069 161.584C49.4842 161.499 49.3456 161.456 49.1909 161.456C49.0362 161.456 48.8949 161.499 48.7669 161.584C48.6442 161.664 48.5376 161.781 48.4469 161.936C48.3562 162.085 48.2869 162.269 48.2389 162.488C48.1909 162.701 48.1669 162.939 48.1669 163.2ZM46.8629 163.2C46.8629 162.592 46.9589 162.072 47.1509 161.64C47.3482 161.208 47.6229 160.877 47.9749 160.648C48.3269 160.413 48.7322 160.296 49.1909 160.296C49.6709 160.296 50.0842 160.413 50.4309 160.648C50.7776 160.877 51.0442 161.208 51.2309 161.64C51.4229 162.072 51.5189 162.592 51.5189 163.2C51.5189 163.808 51.4229 164.328 51.2309 164.76C51.0442 165.192 50.7776 165.525 50.4309 165.76C50.0842 165.989 49.6709 166.104 49.1909 166.104C48.7322 166.104 48.3269 165.989 47.9749 165.76C47.6229 165.525 47.3482 165.192 47.1509 164.76C46.9589 164.328 46.8629 163.808 46.8629 163.2ZM52.5118 160.4H53.9118V166H52.5118V160.4ZM55.8158 160.4H57.3998L55.1278 163.024L57.5198 166H55.8798L53.5198 163.064L55.8158 160.4Z" fill="#899197"/>
<rect x="62.3066" y="168" width="438.387" height="1" fill="#C6C7C8"/>
<path d="M509.533 164.208C509.533 164.539 509.467 164.824 509.333 165.064C509.205 165.304 509.029 165.501 508.805 165.656C508.587 165.811 508.344 165.925 508.077 166C507.816 166.069 507.549 166.104 507.277 166.104C506.936 166.104 506.627 166.069 506.349 166C506.072 165.936 505.827 165.851 505.613 165.744C505.4 165.632 505.205 165.509 505.029 165.376L505.557 164.264C505.712 164.392 505.869 164.501 506.029 164.592C506.195 164.677 506.36 164.747 506.525 164.8C506.691 164.848 506.84 164.872 506.973 164.872C507.203 164.872 507.397 164.843 507.557 164.784C507.717 164.725 507.84 164.635 507.925 164.512C508.011 164.389 508.053 164.24 508.053 164.064C508.053 163.877 508 163.728 507.893 163.616C507.792 163.499 507.659 163.413 507.493 163.36C507.333 163.307 507.16 163.28 506.973 163.28C506.829 163.28 506.669 163.291 506.493 163.312C506.323 163.328 506.144 163.363 505.957 163.416C505.776 163.464 505.589 163.536 505.397 163.632L506.181 160.4H509.413V161.568H507.173L506.853 162.568C507.003 162.499 507.157 162.451 507.317 162.424C507.483 162.392 507.653 162.376 507.829 162.376C508.128 162.376 508.405 162.448 508.661 162.592C508.923 162.736 509.133 162.944 509.293 163.216C509.453 163.488 509.533 163.819 509.533 164.208ZM511.554 163.2C511.554 163.461 511.578 163.701 511.626 163.92C511.674 164.133 511.743 164.317 511.834 164.472C511.924 164.621 512.031 164.739 512.154 164.824C512.282 164.904 512.423 164.944 512.578 164.944C512.732 164.944 512.871 164.904 512.994 164.824C513.122 164.739 513.231 164.621 513.322 164.472C513.412 164.317 513.482 164.133 513.53 163.92C513.578 163.701 513.602 163.461 513.602 163.2C513.602 162.939 513.578 162.701 513.53 162.488C513.482 162.269 513.412 162.085 513.322 161.936C513.231 161.781 513.122 161.664 512.994 161.584C512.871 161.499 512.732 161.456 512.578 161.456C512.423 161.456 512.282 161.499 512.154 161.584C512.031 161.664 511.924 161.781 511.834 161.936C511.743 162.085 511.674 162.269 511.626 162.488C511.578 162.701 511.554 162.939 511.554 163.2ZM510.25 163.2C510.25 162.592 510.346 162.072 510.538 161.64C510.735 161.208 511.01 160.877 511.362 160.648C511.714 160.413 512.119 160.296 512.578 160.296C513.058 160.296 513.471 160.413 513.818 160.648C514.164 160.877 514.431 161.208 514.618 161.64C514.81 162.072 514.906 162.592 514.906 163.2C514.906 163.808 514.81 164.328 514.618 164.76C514.431 165.192 514.164 165.525 513.818 165.76C513.471 165.989 513.058 166.104 512.578 166.104C512.119 166.104 511.714 165.989 511.362 165.76C511.01 165.525 510.735 165.192 510.538 164.76C510.346 164.328 510.25 163.808 510.25 163.2ZM515.898 160.4H517.298V166H515.898V160.4ZM519.202 160.4H520.786L518.514 163.024L520.906 166H519.266L516.906 163.064L519.202 160.4Z" fill="#899197"/>
<path d="M41.4186 197.008L44.6666 192.4H45.6746V198H44.2666V196.592L44.4186 196.504V194.36L43.2106 196.032H45.2746L45.4106 195.856H46.5546V197.008H41.4186ZM48.5966 195.2C48.5966 195.461 48.6206 195.701 48.6686 195.92C48.7166 196.133 48.7859 196.317 48.8766 196.472C48.9672 196.621 49.0739 196.739 49.1966 196.824C49.3246 196.904 49.4659 196.944 49.6206 196.944C49.7752 196.944 49.9139 196.904 50.0366 196.824C50.1646 196.739 50.2739 196.621 50.3646 196.472C50.4552 196.317 50.5246 196.133 50.5726 195.92C50.6206 195.701 50.6446 195.461 50.6446 195.2C50.6446 194.939 50.6206 194.701 50.5726 194.488C50.5246 194.269 50.4552 194.085 50.3646 193.936C50.2739 193.781 50.1646 193.664 50.0366 193.584C49.9139 193.499 49.7752 193.456 49.6206 193.456C49.4659 193.456 49.3246 193.499 49.1966 193.584C49.0739 193.664 48.9672 193.781 48.8766 193.936C48.7859 194.085 48.7166 194.269 48.6686 194.488C48.6206 194.701 48.5966 194.939 48.5966 195.2ZM47.2926 195.2C47.2926 194.592 47.3886 194.072 47.5806 193.64C47.7779 193.208 48.0526 192.877 48.4046 192.648C48.7566 192.413 49.1619 192.296 49.6206 192.296C50.1006 192.296 50.5139 192.413 50.8606 192.648C51.2072 192.877 51.4739 193.208 51.6606 193.64C51.8526 194.072 51.9486 194.592 51.9486 195.2C51.9486 195.808 51.8526 196.328 51.6606 196.76C51.4739 197.192 51.2072 197.525 50.8606 197.76C50.5139 197.989 50.1006 198.104 49.6206 198.104C49.1619 198.104 48.7566 197.989 48.4046 197.76C48.0526 197.525 47.7779 197.192 47.5806 196.76C47.3886 196.328 47.2926 195.808 47.2926 195.2ZM52.9415 192.4H54.3415V198H52.9415V192.4ZM56.2455 192.4H57.8295L55.5575 195.024L57.9495 198H56.3095L53.9495 195.064L56.2455 192.4Z" fill="#899197"/>
<rect x="62.3066" y="200" width="438.387" height="1" fill="#C6C7C8"/>
<path d="M504.805 197.008L508.053 192.4H509.061V198H507.653V196.592L507.805 196.504V194.36L506.597 196.032H508.661L508.797 195.856H509.941V197.008H504.805ZM511.983 195.2C511.983 195.461 512.007 195.701 512.055 195.92C512.103 196.133 512.173 196.317 512.263 196.472C512.354 196.621 512.461 196.739 512.583 196.824C512.711 196.904 512.853 196.944 513.007 196.944C513.162 196.944 513.301 196.904 513.423 196.824C513.551 196.739 513.661 196.621 513.751 196.472C513.842 196.317 513.911 196.133 513.959 195.92C514.007 195.701 514.031 195.461 514.031 195.2C514.031 194.939 514.007 194.701 513.959 194.488C513.911 194.269 513.842 194.085 513.751 193.936C513.661 193.781 513.551 193.664 513.423 193.584C513.301 193.499 513.162 193.456 513.007 193.456C512.853 193.456 512.711 193.499 512.583 193.584C512.461 193.664 512.354 193.781 512.263 193.936C512.173 194.085 512.103 194.269 512.055 194.488C512.007 194.701 511.983 194.939 511.983 195.2ZM510.679 195.2C510.679 194.592 510.775 194.072 510.967 193.64C511.165 193.208 511.439 192.877 511.791 192.648C512.143 192.413 512.549 192.296 513.007 192.296C513.487 192.296 513.901 192.413 514.247 192.648C514.594 192.877 514.861 193.208 515.047 193.64C515.239 194.072 515.335 194.592 515.335 195.2C515.335 195.808 515.239 196.328 515.047 196.76C514.861 197.192 514.594 197.525 514.247 197.76C513.901 197.989 513.487 198.104 513.007 198.104C512.549 198.104 512.143 197.989 511.791 197.76C511.439 197.525 511.165 197.192 510.967 196.76C510.775 196.328 510.679 195.808 510.679 195.2ZM516.328 192.4H517.728V198H516.328V192.4ZM519.632 192.4H521.216L518.944 195.024L521.336 198H519.696L517.336 195.064L519.632 192.4Z" fill="#899197"/>
<line x1="108.75" y1="201" x2="108.75" y2="205" stroke="#959596" stroke-width="0.5"/>
<path d="M97.54 212.2C97.54 212.621 97.6307 212.997 97.812 213.328C97.9987 213.659 98.252 213.92 98.572 214.112C98.892 214.304 99.2547 214.4 99.66 214.4C100.071 214.4 100.433 214.304 100.748 214.112C101.068 213.92 101.319 213.659 101.5 213.328C101.687 212.997 101.78 212.621 101.78 212.2C101.78 211.779 101.687 211.403 101.5 211.072C101.319 210.741 101.068 210.48 100.748 210.288C100.433 210.096 100.071 210 99.66 210C99.2547 210 98.892 210.096 98.572 210.288C98.252 210.48 97.9987 210.741 97.812 211.072C97.6307 211.403 97.54 211.779 97.54 212.2ZM96.82 212.2C96.82 211.789 96.8893 211.411 97.028 211.064C97.172 210.712 97.372 210.408 97.628 210.152C97.884 209.891 98.1853 209.688 98.532 209.544C98.8787 209.395 99.2547 209.32 99.66 209.32C100.071 209.32 100.447 209.395 100.788 209.544C101.135 209.688 101.436 209.891 101.692 210.152C101.948 210.408 102.145 210.712 102.284 211.064C102.428 211.411 102.5 211.789 102.5 212.2C102.5 212.605 102.428 212.984 102.284 213.336C102.145 213.688 101.948 213.995 101.692 214.256C101.436 214.512 101.135 214.715 100.788 214.864C100.447 215.008 100.071 215.08 99.66 215.08C99.2547 215.08 98.8787 215.008 98.532 214.864C98.1853 214.715 97.884 214.512 97.628 214.256C97.372 213.995 97.172 213.688 97.028 213.336C96.8893 212.984 96.82 212.605 96.82 212.2ZM103.788 213.16C103.788 213.416 103.842 213.643 103.948 213.84C104.06 214.037 104.21 214.195 104.396 214.312C104.588 214.424 104.804 214.48 105.044 214.48C105.242 214.48 105.426 214.451 105.596 214.392C105.772 214.328 105.924 214.245 106.052 214.144C106.18 214.037 106.271 213.925 106.324 213.808V214.608C106.196 214.757 106.012 214.875 105.772 214.96C105.538 215.04 105.295 215.08 105.044 215.08C104.687 215.08 104.364 214.997 104.076 214.832C103.788 214.667 103.559 214.44 103.388 214.152C103.223 213.859 103.14 213.528 103.14 213.16C103.14 212.787 103.223 212.456 103.388 212.168C103.559 211.88 103.788 211.653 104.076 211.488C104.364 211.323 104.687 211.24 105.044 211.24C105.295 211.24 105.538 211.283 105.772 211.368C106.012 211.448 106.196 211.563 106.324 211.712V212.512C106.271 212.389 106.18 212.277 106.052 212.176C105.924 212.075 105.772 211.995 105.596 211.936C105.426 211.872 105.242 211.84 105.044 211.84C104.804 211.84 104.588 211.896 104.396 212.008C104.21 212.12 104.06 212.277 103.948 212.48C103.842 212.677 103.788 212.904 103.788 213.16ZM106.841 211.32H108.681V211.92H106.841V211.32ZM107.441 210.04H108.081V215H107.441V210.04ZM111.441 215L114.089 212.176C114.212 212.043 114.316 211.912 114.401 211.784C114.492 211.651 114.558 211.517 114.601 211.384C114.649 211.245 114.673 211.101 114.673 210.952C114.673 210.829 114.649 210.709 114.601 210.592C114.553 210.475 114.481 210.368 114.385 210.272C114.294 210.176 114.182 210.099 114.049 210.04C113.916 209.981 113.764 209.952 113.593 209.952C113.353 209.952 113.145 210.008 112.969 210.12C112.798 210.227 112.668 210.384 112.577 210.592C112.486 210.795 112.441 211.037 112.441 211.32H111.761C111.761 210.92 111.833 210.571 111.977 210.272C112.121 209.968 112.329 209.733 112.601 209.568C112.878 209.397 113.209 209.312 113.593 209.312C113.902 209.312 114.169 209.365 114.393 209.472C114.617 209.573 114.801 209.707 114.945 209.872C115.089 210.032 115.196 210.205 115.265 210.392C115.334 210.579 115.369 210.757 115.369 210.928C115.369 211.216 115.3 211.501 115.161 211.784C115.022 212.067 114.844 212.32 114.625 212.544L112.841 214.36H115.393V215H111.441ZM117.94 212.24V211.8C118.121 211.8 118.281 211.776 118.42 211.728C118.558 211.675 118.676 211.605 118.772 211.52C118.868 211.429 118.94 211.325 118.988 211.208C119.041 211.091 119.068 210.965 119.068 210.832C119.068 210.656 119.036 210.501 118.972 210.368C118.908 210.229 118.812 210.123 118.684 210.048C118.561 209.973 118.406 209.936 118.22 209.936C117.958 209.936 117.737 210.019 117.556 210.184C117.374 210.344 117.284 210.547 117.284 210.792H116.636C116.636 210.499 116.702 210.243 116.836 210.024C116.974 209.805 117.161 209.635 117.396 209.512C117.636 209.384 117.908 209.32 118.212 209.32C118.532 209.32 118.806 209.389 119.036 209.528C119.27 209.667 119.449 209.848 119.572 210.072C119.7 210.296 119.764 210.541 119.764 210.808C119.764 211.069 119.686 211.309 119.532 211.528C119.377 211.747 119.164 211.92 118.892 212.048C118.62 212.176 118.302 212.24 117.94 212.24ZM118.18 215.08C117.908 215.08 117.662 215.04 117.444 214.96C117.225 214.88 117.038 214.771 116.884 214.632C116.729 214.488 116.609 214.323 116.524 214.136C116.438 213.944 116.396 213.739 116.396 213.52H117.084C117.084 213.696 117.129 213.853 117.22 213.992C117.316 214.131 117.446 214.24 117.612 214.32C117.777 214.4 117.966 214.44 118.18 214.44C118.393 214.44 118.577 214.4 118.732 214.32C118.892 214.235 119.014 214.117 119.1 213.968C119.185 213.819 119.228 213.643 119.228 213.44C119.228 213.269 119.193 213.12 119.124 212.992C119.06 212.859 118.969 212.749 118.852 212.664C118.734 212.573 118.598 212.507 118.444 212.464C118.289 212.421 118.121 212.4 117.94 212.4V211.96C118.212 211.96 118.465 211.989 118.7 212.048C118.94 212.107 119.15 212.2 119.332 212.328C119.518 212.451 119.662 212.611 119.764 212.808C119.87 213.005 119.924 213.243 119.924 213.52C119.924 213.835 119.846 214.109 119.692 214.344C119.542 214.579 119.337 214.76 119.076 214.888C118.814 215.016 118.516 215.08 118.18 215.08Z" fill="#899197"/>
<line x1="198.25" y1="201" x2="198.25" y2="205" stroke="#959596" stroke-width="0.5"/>
<path d="M186.54 212.2C186.54 212.621 186.631 212.997 186.812 213.328C186.999 213.659 187.252 213.92 187.572 214.112C187.892 214.304 188.255 214.4 188.66 214.4C189.071 214.4 189.433 214.304 189.748 214.112C190.068 213.92 190.319 213.659 190.5 213.328C190.687 212.997 190.78 212.621 190.78 212.2C190.78 211.779 190.687 211.403 190.5 211.072C190.319 210.741 190.068 210.48 189.748 210.288C189.433 210.096 189.071 210 188.66 210C188.255 210 187.892 210.096 187.572 210.288C187.252 210.48 186.999 210.741 186.812 211.072C186.631 211.403 186.54 211.779 186.54 212.2ZM185.82 212.2C185.82 211.789 185.889 211.411 186.028 211.064C186.172 210.712 186.372 210.408 186.628 210.152C186.884 209.891 187.185 209.688 187.532 209.544C187.879 209.395 188.255 209.32 188.66 209.32C189.071 209.32 189.447 209.395 189.788 209.544C190.135 209.688 190.436 209.891 190.692 210.152C190.948 210.408 191.145 210.712 191.284 211.064C191.428 211.411 191.5 211.789 191.5 212.2C191.5 212.605 191.428 212.984 191.284 213.336C191.145 213.688 190.948 213.995 190.692 214.256C190.436 214.512 190.135 214.715 189.788 214.864C189.447 215.008 189.071 215.08 188.66 215.08C188.255 215.08 187.879 215.008 187.532 214.864C187.185 214.715 186.884 214.512 186.628 214.256C186.372 213.995 186.172 213.688 186.028 213.336C185.889 212.984 185.82 212.605 185.82 212.2ZM192.788 213.16C192.788 213.416 192.842 213.643 192.948 213.84C193.06 214.037 193.21 214.195 193.396 214.312C193.588 214.424 193.804 214.48 194.044 214.48C194.242 214.48 194.426 214.451 194.596 214.392C194.772 214.328 194.924 214.245 195.052 214.144C195.18 214.037 195.271 213.925 195.324 213.808V214.608C195.196 214.757 195.012 214.875 194.772 214.96C194.538 215.04 194.295 215.08 194.044 215.08C193.687 215.08 193.364 214.997 193.076 214.832C192.788 214.667 192.559 214.44 192.388 214.152C192.223 213.859 192.14 213.528 192.14 213.16C192.14 212.787 192.223 212.456 192.388 212.168C192.559 211.88 192.788 211.653 193.076 211.488C193.364 211.323 193.687 211.24 194.044 211.24C194.295 211.24 194.538 211.283 194.772 211.368C195.012 211.448 195.196 211.563 195.324 211.712V212.512C195.271 212.389 195.18 212.277 195.052 212.176C194.924 212.075 194.772 211.995 194.596 211.936C194.426 211.872 194.242 211.84 194.044 211.84C193.804 211.84 193.588 211.896 193.396 212.008C193.21 212.12 193.06 212.277 192.948 212.48C192.842 212.677 192.788 212.904 192.788 213.16ZM195.841 211.32H197.681V211.92H195.841V211.32ZM196.441 210.04H197.081V215H196.441V210.04ZM202.305 212.24V211.8C202.486 211.8 202.646 211.776 202.785 211.728C202.924 211.675 203.041 211.605 203.137 211.52C203.233 211.429 203.305 211.325 203.353 211.208C203.406 211.091 203.433 210.965 203.433 210.832C203.433 210.656 203.401 210.501 203.337 210.368C203.273 210.229 203.177 210.123 203.049 210.048C202.926 209.973 202.772 209.936 202.585 209.936C202.324 209.936 202.102 210.019 201.921 210.184C201.74 210.344 201.649 210.547 201.649 210.792H201.001C201.001 210.499 201.068 210.243 201.201 210.024C201.34 209.805 201.526 209.635 201.761 209.512C202.001 209.384 202.273 209.32 202.577 209.32C202.897 209.32 203.172 209.389 203.401 209.528C203.636 209.667 203.814 209.848 203.937 210.072C204.065 210.296 204.129 210.541 204.129 210.808C204.129 211.069 204.052 211.309 203.897 211.528C203.742 211.747 203.529 211.92 203.257 212.048C202.985 212.176 202.668 212.24 202.305 212.24ZM202.545 215.08C202.273 215.08 202.028 215.04 201.809 214.96C201.59 214.88 201.404 214.771 201.249 214.632C201.094 214.488 200.974 214.323 200.889 214.136C200.804 213.944 200.761 213.739 200.761 213.52H201.449C201.449 213.696 201.494 213.853 201.585 213.992C201.681 214.131 201.812 214.24 201.977 214.32C202.142 214.4 202.332 214.44 202.545 214.44C202.758 214.44 202.942 214.4 203.097 214.32C203.257 214.235 203.38 214.117 203.465 213.968C203.55 213.819 203.593 213.643 203.593 213.44C203.593 213.269 203.558 213.12 203.489 212.992C203.425 212.859 203.334 212.749 203.217 212.664C203.1 212.573 202.964 212.507 202.809 212.464C202.654 212.421 202.486 212.4 202.305 212.4V211.96C202.577 211.96 202.83 211.989 203.065 212.048C203.305 212.107 203.516 212.2 203.697 212.328C203.884 212.451 204.028 212.611 204.129 212.808C204.236 213.005 204.289 213.243 204.289 213.52C204.289 213.835 204.212 214.109 204.057 214.344C203.908 214.579 203.702 214.76 203.441 214.888C203.18 215.016 202.881 215.08 202.545 215.08ZM205.728 212.2C205.728 212.525 205.76 212.827 205.824 213.104C205.888 213.376 205.981 213.613 206.104 213.816C206.227 214.013 206.373 214.168 206.544 214.28C206.72 214.387 206.915 214.44 207.128 214.44C207.347 214.44 207.541 214.387 207.712 214.28C207.883 214.168 208.029 214.013 208.152 213.816C208.275 213.613 208.368 213.376 208.432 213.104C208.496 212.827 208.528 212.525 208.528 212.2C208.528 211.875 208.496 211.576 208.432 211.304C208.368 211.027 208.275 210.789 208.152 210.592C208.029 210.389 207.883 210.235 207.712 210.128C207.541 210.016 207.347 209.96 207.128 209.96C206.915 209.96 206.72 210.016 206.544 210.128C206.373 210.235 206.227 210.389 206.104 210.592C205.981 210.789 205.888 211.027 205.824 211.304C205.76 211.576 205.728 211.875 205.728 212.2ZM205.048 212.2C205.048 211.64 205.136 211.144 205.312 210.712C205.488 210.28 205.731 209.941 206.04 209.696C206.355 209.445 206.717 209.32 207.128 209.32C207.539 209.32 207.899 209.445 208.208 209.696C208.523 209.941 208.768 210.28 208.944 210.712C209.12 211.144 209.208 211.64 209.208 212.2C209.208 212.76 209.12 213.256 208.944 213.688C208.768 214.12 208.523 214.461 208.208 214.712C207.899 214.957 207.539 215.08 207.128 215.08C206.717 215.08 206.355 214.957 206.04 214.712C205.731 214.461 205.488 214.12 205.312 213.688C205.136 213.256 205.048 212.76 205.048 212.2Z" fill="#899197"/>
<line x1="286.25" y1="201" x2="286.25" y2="205" stroke="#959596" stroke-width="0.5"/>
<path d="M280.38 209.4H281.06V215.28L276.82 210.832V215H276.14V209.12L280.38 213.568V209.4ZM282.063 213.16C282.063 212.787 282.146 212.456 282.311 212.168C282.482 211.88 282.711 211.653 282.999 211.488C283.287 211.323 283.61 211.24 283.967 211.24C284.33 211.24 284.652 211.323 284.935 211.488C285.223 211.653 285.45 211.88 285.615 212.168C285.786 212.456 285.871 212.787 285.871 213.16C285.871 213.528 285.786 213.859 285.615 214.152C285.45 214.44 285.223 214.667 284.935 214.832C284.652 214.997 284.33 215.08 283.967 215.08C283.61 215.08 283.287 214.997 282.999 214.832C282.711 214.667 282.482 214.44 282.311 214.152C282.146 213.859 282.063 213.528 282.063 213.16ZM282.711 213.16C282.711 213.416 282.764 213.643 282.871 213.84C282.983 214.037 283.132 214.195 283.319 214.312C283.511 214.424 283.727 214.48 283.967 214.48C284.207 214.48 284.42 214.424 284.607 214.312C284.799 214.195 284.948 214.037 285.055 213.84C285.167 213.643 285.223 213.416 285.223 213.16C285.223 212.904 285.167 212.677 285.055 212.48C284.948 212.277 284.799 212.12 284.607 212.008C284.42 211.896 284.207 211.84 283.967 211.84C283.727 211.84 283.511 211.896 283.319 212.008C283.132 212.12 282.983 212.277 282.871 212.48C282.764 212.677 282.711 212.904 282.711 213.16ZM286.113 211.32H286.833L287.873 213.92L288.913 211.32H289.633L287.873 215.28L286.113 211.32ZM292.435 210.04V209.4H296.355L293.675 215H292.963L295.339 210.04H292.435Z" fill="#899197"/>
<line x1="374.75" y1="201" x2="374.75" y2="205" stroke="#959596" stroke-width="0.5"/>
<path d="M366.38 209.4H367.06V215.28L362.82 210.832V215H362.14V209.12L366.38 213.568V209.4ZM368.063 213.16C368.063 212.787 368.146 212.456 368.311 212.168C368.482 211.88 368.711 211.653 368.999 211.488C369.287 211.323 369.61 211.24 369.967 211.24C370.33 211.24 370.652 211.323 370.935 211.488C371.223 211.653 371.45 211.88 371.615 212.168C371.786 212.456 371.871 212.787 371.871 213.16C371.871 213.528 371.786 213.859 371.615 214.152C371.45 214.44 371.223 214.667 370.935 214.832C370.652 214.997 370.33 215.08 369.967 215.08C369.61 215.08 369.287 214.997 368.999 214.832C368.711 214.667 368.482 214.44 368.311 214.152C368.146 213.859 368.063 213.528 368.063 213.16ZM368.711 213.16C368.711 213.416 368.764 213.643 368.871 213.84C368.983 214.037 369.132 214.195 369.319 214.312C369.511 214.424 369.727 214.48 369.967 214.48C370.207 214.48 370.42 214.424 370.607 214.312C370.799 214.195 370.948 214.037 371.055 213.84C371.167 213.643 371.223 213.416 371.223 213.16C371.223 212.904 371.167 212.677 371.055 212.48C370.948 212.277 370.799 212.12 370.607 212.008C370.42 211.896 370.207 211.84 369.967 211.84C369.727 211.84 369.511 211.896 369.319 212.008C369.132 212.12 368.983 212.277 368.871 212.48C368.764 212.677 368.711 212.904 368.711 213.16ZM372.113 211.32H372.833L373.873 213.92L374.913 211.32H375.633L373.873 215.28L372.113 211.32ZM378.835 210.504V209.8L380.755 209.32V215H380.075V210.136L378.835 210.504ZM382.037 213.88L385.141 209.4H385.421V215H384.741V213.592V213.504V210.912L383.157 213.28H385.021H385.157H386.301V213.88H382.037Z" fill="#899197"/>
<path fill-rule="evenodd" clip-rule="evenodd" d="M484.503 139.063L504.901 137.63L504.852 136.932L484.454 138.365C483.548 138.428 482.673 138.722 481.911 139.217L445.534 162.885L445.527 162.89L445.52 162.894L421.318 180.303C420.707 180.742 419.999 181.027 419.254 181.132L381.546 186.472C380.582 186.609 379.599 186.439 378.737 185.988L334.916 163.046C334.468 162.811 333.99 162.642 333.495 162.542L243.937 144.429C242.638 144.166 241.286 144.395 240.146 145.072L189.367 175.214C188.487 175.736 187.46 175.954 186.443 175.833L88.8622 164.202L88.7793 164.897L186.361 176.528C187.53 176.667 188.712 176.417 189.725 175.816L240.503 145.674C241.494 145.086 242.669 144.887 243.799 145.115L333.356 163.228C333.786 163.315 334.202 163.462 334.591 163.666L378.412 186.608C379.404 187.127 380.535 187.322 381.644 187.165L419.352 181.825C420.209 181.704 421.024 181.377 421.726 180.871L445.916 163.472L445.929 163.463L482.293 139.804C482.955 139.373 483.715 139.118 484.503 139.063ZM56.0127 169.897H56.5015V169.197H56.0127V169.897ZM57.479 169.897H58.4566V169.197H57.479V169.897ZM59.4342 169.897H60.4117L60.4117 169.197H59.4342V169.897ZM61.3893 169.897H62.3669V169.197H61.3893L61.3893 169.897ZM63.3444 169.897H64.322V169.197H63.3444V169.897ZM65.2996 169.897H66.2771V169.197H65.2996V169.897ZM67.2547 169.897H68.2323V169.197H67.2547V169.897ZM69.2098 169.897H70.1874V169.197H69.2098V169.897ZM71.165 169.897H72.1425V169.197H71.165V169.897ZM73.1201 169.897H74.0977V169.197H73.1201V169.897ZM75.0752 169.897H76.0528V169.197H75.0752V169.897ZM77.0304 169.897H78.0079V169.197H77.0304V169.897ZM78.9855 169.897H79.9631V169.197H78.9855V169.897ZM80.9406 169.897H81.9182V169.197H80.9406V169.897ZM82.8958 169.897H83.8733V169.197H82.8958V169.897ZM84.8509 169.897H85.8285V169.197H84.8509V169.897ZM86.806 169.897H87.7836V169.197H86.806V169.897ZM88.7612 169.897H89.25C89.4433 169.897 89.6 169.74 89.6 169.547C89.6 169.354 89.4433 169.197 89.25 169.197H88.7612V169.897Z" fill="#8D78EC"/>
<rect x="25" y="86.5" width="513" height="198" rx="1.5" stroke="black"/>
<defs>
<filter id="filter0_d_1215_35363" x="142" y="33" width="151.5" height="57" filterUnits="userSpaceOnUse" color-interpolation-filters="sRGB">
<feFlood flood-opacity="0" result="BackgroundImageFix"/>
<feColorMatrix in="SourceAlpha" type="matrix" values="0 0 0 0 0 0 0 0 0 0 0 0 0 0 0 0 0 0 127 0" result="hardAlpha"/>
<feOffset dy="4"/>
<feGaussianBlur stdDeviation="6"/>
<feComposite in2="hardAlpha" operator="out"/>
<feColorMatrix type="matrix" values="0 0 0 0 0 0 0 0 0 0 0 0 0 0 0 0 0 0 0.1 0"/>
<feBlend mode="normal" in2="BackgroundImageFix" result="effect1_dropShadow_1215_35363"/>
<feBlend mode="normal" in="SourceGraphic" in2="effect1_dropShadow_1215_35363" result="shape"/>
</filter>
</defs>
</svg>
