 <svg
                              width="56"
                              height="56"
                              viewBox="0 0 56 56"
                              fill="none"
                              xmlns="http://www.w3.org/2000/svg"
                            >
                              <g id="Icons/technology">
                                <path
                                  id="Vector"
                                  d="M36.3502 40.8361H23.3013C20.8593 40.8361 18.874 38.8481 18.874 36.4027V23.3361C18.874 20.8907 20.8593 18.9027 23.3013 18.9027H36.3502C38.7922 18.9027 40.7775 20.8907 40.7775 23.3361V36.4027C40.7775 38.8481 38.7922 40.8361 36.3502 40.8361ZM23.3013 20.3027C21.6329 20.3027 20.2721 21.6654 20.2721 23.3361V36.4027C20.2721 38.0734 21.6329 39.4361 23.3013 39.4361H36.3502C38.0186 39.4361 39.3794 38.0734 39.3794 36.4027V23.3361C39.3794 21.6654 38.0186 20.3027 36.3502 20.3027H23.3013ZM36.3502 37.1027H23.3013C22.9191 37.1027 22.6022 36.7854 22.6022 36.4027V23.3361C22.6022 22.9534 22.9191 22.6361 23.3013 22.6361H36.3502C36.7324 22.6361 37.0493 22.9534 37.0493 23.3361V36.4027C37.0493 36.7854 36.7324 37.1027 36.3502 37.1027ZM24.0003 35.7027H35.6512V24.0361H24.0003V35.7027ZM29.8257 33.3694C27.8964 33.3694 26.3305 31.8014 26.3305 29.8694C26.3305 27.9374 27.8964 26.3694 29.8257 26.3694C31.7551 26.3694 33.321 27.9374 33.321 29.8694C33.321 31.8014 31.7551 33.3694 29.8257 33.3694ZM29.8257 27.7694C28.67 27.7694 27.7286 28.7121 27.7286 29.8694C27.7286 31.0267 28.67 31.9694 29.8257 31.9694C30.9815 31.9694 31.9229 31.0267 31.9229 29.8694C31.9229 28.7121 30.9815 27.7694 29.8257 27.7694ZM40.1996 9.27072C40.4699 9.00006 40.4699 8.55206 40.1996 8.28139C37.4221 5.50006 33.7404 3.96939 29.8257 3.96939C25.9111 3.96939 22.2294 5.50006 19.4519 8.28139C19.1816 8.55206 19.1816 9.00006 19.4519 9.27072C19.7222 9.54139 20.1696 9.54139 20.4399 9.27072C22.9564 6.75072 26.2839 5.36939 29.8257 5.36939C33.3676 5.36939 36.6951 6.75072 39.2116 9.27072C39.3515 9.41072 39.5285 9.47606 39.7056 9.47606C39.8827 9.47606 40.0598 9.41072 40.1996 9.27072ZM37.5712 11.9027C37.8415 11.6321 37.8415 11.1841 37.5712 10.9134C35.4927 8.84139 32.7431 7.70272 29.8257 7.70272C26.9084 7.70272 24.1588 8.84139 22.0803 10.9134C21.81 11.1841 21.81 11.6321 22.0803 11.9027C22.3506 12.1734 22.798 12.1734 23.0683 11.9027C24.8858 10.0921 27.2812 9.10272 29.8257 9.10272C32.3703 9.10272 34.775 10.1014 36.5832 11.9027C36.723 12.0427 36.9001 12.1081 37.0772 12.1081C37.2543 12.1081 37.4314 12.0427 37.5712 11.9027ZM25.706 14.5441C26.8059 13.4427 28.2692 12.8361 29.8257 12.8361C31.3823 12.8361 32.8456 13.4427 33.9455 14.5441C34.2158 14.8147 34.6632 14.8147 34.9335 14.5441C35.2038 14.2734 35.2038 13.8254 34.9335 13.5547C33.5727 12.1921 31.7551 11.4361 29.8257 11.4361C27.8964 11.4361 26.0788 12.1921 24.718 13.5547C24.4477 13.8254 24.4477 14.2734 24.718 14.5441C24.8578 14.6841 25.0349 14.7494 25.212 14.7494C25.3891 14.7494 25.5662 14.6841 25.706 14.5441ZM40.1996 51.4574C40.4699 51.1867 40.4699 50.7387 40.1996 50.4681C39.9293 50.1974 39.4819 50.1974 39.2116 50.4681C36.6951 52.9881 33.3676 54.3694 29.8257 54.3694C26.2839 54.3694 22.9564 52.9881 20.4399 50.4681C20.1696 50.1974 19.7222 50.1974 19.4519 50.4681C19.1816 50.7387 19.1816 51.1867 19.4519 51.4574C22.2294 54.2387 25.9111 55.7694 29.8257 55.7694C33.7404 55.7694 37.4221 54.2387 40.1996 51.4574ZM37.5712 48.8254C37.8415 48.5547 37.8415 48.1067 37.5712 47.8361C37.3009 47.5654 36.8535 47.5654 36.5832 47.8361C34.7657 49.6467 32.3703 50.6361 29.8257 50.6361C27.2812 50.6361 24.8765 49.6374 23.0683 47.8361C22.798 47.5654 22.3506 47.5654 22.0803 47.8361C21.81 48.1067 21.81 48.5547 22.0803 48.8254C24.1588 50.8974 26.9084 52.0361 29.8257 52.0361C32.7431 52.0361 35.4927 50.8974 37.5712 48.8254ZM34.9335 46.1841C35.2038 45.9134 35.2038 45.4654 34.9335 45.1947C34.6632 44.9241 34.2158 44.9241 33.9455 45.1947C32.8456 46.2961 31.3823 46.9027 29.8257 46.9027C28.2692 46.9027 26.8059 46.2961 25.706 45.1947C25.4357 44.9241 24.9883 44.9241 24.718 45.1947C24.4477 45.4654 24.4477 45.9134 24.718 46.1841C26.0788 47.5467 27.8964 48.3027 29.8257 48.3027C31.7551 48.3027 33.5727 47.5467 34.9335 46.1841ZM51.3844 40.2574C54.162 37.4761 55.6906 33.7894 55.6906 29.8694C55.6906 25.9494 54.162 22.2627 51.3844 19.4814C51.1141 19.2107 50.6667 19.2107 50.3964 19.4814C50.1261 19.7521 50.1261 20.2001 50.3964 20.4707C52.913 22.9907 54.2925 26.3227 54.2925 29.8694C54.2925 33.4161 52.913 36.7481 50.3964 39.2681C50.1261 39.5387 50.1261 39.9867 50.3964 40.2574C50.5362 40.3974 50.7133 40.4627 50.8904 40.4627C51.0675 40.4627 51.2446 40.3974 51.3844 40.2574ZM48.756 37.6254C50.8252 35.5441 51.9623 32.7907 51.9623 29.8694C51.9623 26.9481 50.8252 24.1947 48.756 22.1134C48.4857 21.8427 48.0383 21.8427 47.768 22.1134C47.4977 22.3841 47.4977 22.8321 47.768 23.1027C49.5762 24.9227 50.5642 27.3214 50.5642 29.8694C50.5642 32.4174 49.5669 34.8161 47.768 36.6361C47.4977 36.9067 47.4977 37.3547 47.768 37.6254C47.9078 37.7654 48.0849 37.8307 48.262 37.8307C48.4391 37.8307 48.6162 37.7654 48.756 37.6254ZM46.1182 34.9841C47.4791 33.6214 48.234 31.8014 48.234 29.8694C48.234 27.9374 47.4791 26.1174 46.1182 24.7547C45.8479 24.4841 45.4006 24.4841 45.1303 24.7547C44.86 25.0254 44.86 25.4734 45.1303 25.7441C46.2301 26.8454 46.8359 28.3107 46.8359 29.8694C46.8359 31.4281 46.2301 32.8934 45.1303 33.9947C44.86 34.2654 44.86 34.7134 45.1303 34.9841C45.2701 35.1241 45.4472 35.1894 45.6243 35.1894C45.8013 35.1894 45.9784 35.1241 46.1182 34.9841ZM9.25507 40.2574C9.52537 39.9867 9.52537 39.5387 9.25507 39.2681C6.73849 36.7481 5.35904 33.4161 5.35904 29.8694C5.35904 26.3227 6.73849 22.9907 9.25507 20.4707C9.52537 20.2001 9.52537 19.7521 9.25507 19.4814C8.98477 19.2107 8.53738 19.2107 8.26708 19.4814C5.48952 22.2627 3.96094 25.9494 3.96094 29.8694C3.96094 33.7894 5.48952 37.4761 8.26708 40.2574C8.40689 40.3974 8.58398 40.4627 8.76107 40.4627C8.93817 40.4627 9.11526 40.3974 9.25507 40.2574ZM11.8835 37.6254C12.1538 37.3547 12.1538 36.9067 11.8835 36.6361C10.0753 34.8161 9.0873 32.4174 9.0873 29.8694C9.0873 27.3214 10.0846 24.9134 11.8835 23.1027C12.1538 22.8321 12.1538 22.3841 11.8835 22.1134C11.6132 21.8427 11.1658 21.8427 10.8955 22.1134C8.82632 24.1947 7.6892 26.9481 7.6892 29.8694C7.6892 32.7907 8.82632 35.5441 10.8955 37.6254C11.0353 37.7654 11.2124 37.8307 11.3895 37.8307C11.5666 37.8307 11.7437 37.7654 11.8835 37.6254ZM14.5212 34.9841C14.7915 34.7134 14.7915 34.2654 14.5212 33.9947C13.4214 32.8934 12.8156 31.4281 12.8156 29.8694C12.8156 28.3107 13.4214 26.8454 14.5212 25.7441C14.7915 25.4734 14.7915 25.0254 14.5212 24.7547C14.2509 24.4841 13.8035 24.4841 13.5332 24.7547C12.1724 26.1174 11.4175 27.9374 11.4175 29.8694C11.4175 31.8014 12.1724 33.6214 13.5332 34.9841C13.6731 35.1241 13.8502 35.1894 14.0272 35.1894C14.2043 35.1894 14.3814 35.1241 14.5212 34.9841Z"
                                  fill="black"
                                />
                              </g>
                            </svg>