  <svg
                              width="56"
                              height="56"
                              viewBox="0 0 56 56"
                              fill="none"
                              xmlns="http://www.w3.org/2000/svg"
                            >
                              <g id="Icons/NFC">
                                <path
                                  id="Vector"
                                  d="M45.6682 2.41992H12.6632C10.3824 2.41992 8.5332 4.27492 8.5332 6.54992V51.7816C8.5332 54.0624 10.3882 55.9116 12.6632 55.9116H45.6624C47.9432 55.9116 49.7924 54.0566 49.7924 51.7816V6.54992C49.7924 4.26909 47.9374 2.41992 45.6624 2.41992H45.6682ZM48.0774 51.7816C48.0774 53.1058 46.9982 54.1908 45.6682 54.1908H12.6632C11.339 54.1908 10.254 53.1116 10.254 51.7816V6.54992C10.254 5.22575 11.3332 4.14076 12.6632 4.14076H45.6624C46.9924 4.14076 48.0715 5.21992 48.0715 6.54992V51.7816H48.0774ZM33.984 51.3383C33.984 51.8166 33.599 52.2016 33.1207 52.2016H25.2165C24.7382 52.2016 24.3532 51.8166 24.3532 51.3383C24.3532 50.8599 24.7382 50.4749 25.2165 50.4749H33.1207C33.599 50.4749 33.984 50.8599 33.984 51.3383ZM24.3532 6.99325C24.3532 6.51492 24.7382 6.12992 25.2165 6.12992H33.1207C33.599 6.12992 33.984 6.51492 33.984 6.99325C33.984 7.47159 33.599 7.85659 33.1207 7.85659H25.2165C24.7382 7.85659 24.3532 7.47159 24.3532 6.99325ZM43.4574 35.1741V42.5883C43.4574 43.0666 43.0724 43.4516 42.594 43.4516H35.1799C34.7015 43.4516 34.3165 43.0666 34.3165 42.5883C34.3165 42.1099 34.7015 41.7249 35.1799 41.7249H41.7307V35.1741C41.7307 34.6958 42.1157 34.3108 42.594 34.3108C43.0724 34.3108 43.4574 34.6958 43.4574 35.1741ZM14.8799 23.1574V15.7433C14.8799 15.2649 15.2649 14.8799 15.7432 14.8799H23.1574C23.6357 14.8799 24.0207 15.2649 24.0207 15.7433C24.0207 16.2216 23.6357 16.6066 23.1574 16.6066H16.6065V23.1574C16.6065 23.6358 16.2215 24.0208 15.7432 24.0208C15.2649 24.0208 14.8799 23.6358 14.8799 23.1574ZM24.0207 42.5941C24.0207 43.0724 23.6357 43.4574 23.1574 43.4574H15.7432C15.2649 43.4574 14.8799 43.0724 14.8799 42.5941V35.1799C14.8799 34.7016 15.2649 34.3166 15.7432 34.3166C16.2215 34.3166 16.6065 34.7016 16.6065 35.1799V41.7308H23.1574C23.6357 41.7308 24.0207 42.1157 24.0207 42.5941ZM43.4515 15.7433V23.1574C43.4515 23.6358 43.0665 24.0208 42.5882 24.0208C42.1099 24.0208 41.7249 23.6358 41.7249 23.1574V16.6066H35.174C34.6957 16.6066 34.3107 16.2216 34.3107 15.7433C34.3107 15.2649 34.6957 14.8799 35.174 14.8799H42.5882C43.0665 14.8799 43.4515 15.2649 43.4515 15.7433ZM27.4449 20.8883C27.4449 20.1941 26.879 19.6341 26.1907 19.6341H20.789C20.0949 19.6341 19.5349 20.1999 19.5349 20.8883V26.2899C19.5349 26.9841 20.1007 27.5441 20.789 27.5441H26.1907C26.8849 27.5441 27.4449 26.9783 27.4449 26.2899V20.8883ZM25.7182 25.8174H21.2557V21.3549H25.7182V25.8174ZM19.529 37.4491C19.529 38.1432 20.0949 38.7033 20.7832 38.7033H26.1849C26.879 38.7033 27.439 38.1374 27.439 37.4491V32.0474C27.439 31.3533 26.8732 30.7933 26.1849 30.7933H20.7832C20.089 30.7933 19.529 31.3591 19.529 32.0474V37.4491ZM21.2557 32.5199H25.7182V36.9824H21.2557V32.5199ZM36.8774 26.8674V21.3549H35.0457C34.5674 21.3549 34.1824 20.9699 34.1824 20.4916C34.1824 20.0133 34.5674 19.6283 35.0457 19.6283H37.3499C38.044 19.6283 38.604 20.1941 38.604 20.8824V26.8616C38.604 27.3399 38.219 27.7249 37.7407 27.7249C37.2624 27.7249 36.8774 27.3399 36.8774 26.8616V26.8674ZM31.9482 38.7033H37.3499C38.044 38.7033 38.604 38.1374 38.604 37.4491V32.0474C38.604 31.3533 38.0382 30.7933 37.3499 30.7933H31.9482C31.254 30.7933 30.694 31.3591 30.694 32.0474V37.4491C30.694 38.1432 31.2599 38.7033 31.9482 38.7033ZM32.4207 32.5141H36.8832V36.9766H32.4207V32.5141ZM29.8657 28.6524C29.1715 28.6524 28.6115 28.0866 28.6115 27.3983V24.8374C28.6115 24.3591 28.9965 23.9741 29.4749 23.9741H32.5607C33.039 23.9741 33.424 24.3591 33.424 24.8374C33.424 25.3158 33.039 25.7008 32.5607 25.7008H30.3382V26.9316H32.5374C33.0157 26.9316 33.4007 27.3166 33.4007 27.7949C33.4007 28.2733 33.0157 28.6583 32.5374 28.6583H29.8657V28.6524ZM33.424 20.8824V22.2591C33.424 22.7374 33.039 23.1224 32.5607 23.1224C32.0824 23.1224 31.6974 22.7374 31.6974 22.2591V21.3491H29.4749C28.9965 21.3491 28.6115 20.9641 28.6115 20.4858C28.6115 20.0074 28.9965 19.6224 29.4749 19.6224H32.1699C32.864 19.6224 33.424 20.1883 33.424 20.8766V20.8824ZM34.1882 24.2074V22.5683C34.1882 22.0899 34.5732 21.7049 35.0515 21.7049C35.5299 21.7049 35.9149 22.0899 35.9149 22.5683V24.2074C35.9149 24.6858 35.5299 25.0708 35.0515 25.0708C34.5732 25.0708 34.1882 24.6858 34.1882 24.2074ZM34.0015 28.7924V26.1208C34.0015 25.6424 34.3865 25.2574 34.8649 25.2574C35.3432 25.2574 35.7282 25.6424 35.7282 26.1208V28.3199H37.9274C38.4057 28.3199 38.7907 28.7049 38.7907 29.1833C38.7907 29.6616 38.4057 30.0466 37.9274 30.0466H35.2557C34.5615 30.0466 34.0015 29.4808 34.0015 28.7924ZM28.9965 29.2533C29.4749 29.2533 29.8599 29.6383 29.8599 30.1166V37.8341C29.8599 38.3124 29.4749 38.6974 28.9965 38.6974C28.5182 38.6974 28.1332 38.3124 28.1332 37.8341V30.1166C28.1332 29.6383 28.5182 29.2533 28.9965 29.2533ZM33.1499 28.8624C33.6282 28.8624 34.0132 29.2474 34.0132 29.7258C34.0132 30.2041 33.6282 30.5891 33.1499 30.5891H31.9599C31.4815 30.5891 31.0965 30.2041 31.0965 29.7258C31.0965 29.2474 31.4815 28.8624 31.9599 28.8624H33.1499ZM25.094 30.0291C24.6157 30.0291 24.2307 29.6441 24.2307 29.1658C24.2307 28.6874 24.6157 28.3024 25.094 28.3024H26.284C26.7624 28.3024 27.1474 28.6874 27.1474 29.1658C27.1474 29.6441 26.7624 30.0291 26.284 30.0291H25.094ZM20.3924 30.0291C19.914 30.0291 19.529 29.6441 19.529 29.1658C19.529 28.6874 19.914 28.3024 20.3924 28.3024H23.0524C23.5307 28.3024 23.9157 28.6874 23.9157 29.1658C23.9157 29.6441 23.5307 30.0291 23.0524 30.0291H20.3924ZM24.9424 34.7483C24.9424 35.2266 24.5574 35.6116 24.079 35.6116H22.889C22.4107 35.6116 22.0257 35.2266 22.0257 34.7483C22.0257 34.2699 22.4107 33.8849 22.889 33.8849H24.079C24.5574 33.8849 24.9424 34.2699 24.9424 34.7483ZM36.1015 34.7483C36.1015 35.2266 35.7165 35.6116 35.2382 35.6116H34.0482C33.5699 35.6116 33.1849 35.2266 33.1849 34.7483C33.1849 34.2699 33.5699 33.8849 34.0482 33.8849H35.2382C35.7165 33.8849 36.1015 34.2699 36.1015 34.7483ZM22.0257 23.5891C22.0257 23.1108 22.4107 22.7258 22.889 22.7258H24.079C24.5574 22.7258 24.9424 23.1108 24.9424 23.5891C24.9424 24.0674 24.5574 24.4524 24.079 24.4524H22.889C22.4107 24.4524 22.0257 24.0674 22.0257 23.5891Z"
                                  fill="#565E64"
                                />
                              </g>
                            </svg>