  <svg
                              width="56"
                              height="56"
                              viewBox="0 0 56 56"
                              fill="none"
                              xmlns="http://www.w3.org/2000/svg"
                            >
                              <g clip-path="url(#clip0_1986_64775)">
                                <g clip-path="url(#clip1_1986_64775)">
                                  <path
                                    d="M22.266 24.2C20.499 24.2 19.066 25.633 19.066 27.4C19.066 29.167 20.499 30.6 22.266 30.6C24.0331 30.6 25.466 29.167 25.466 27.4C25.466 25.633 24.0331 24.2 22.266 24.2ZM22.266 29C21.3847 29 20.666 28.2829 20.666 27.4C20.666 26.5171 21.3847 25.8 22.266 25.8C23.1473 25.8 23.866 26.5171 23.866 27.4C23.866 28.2829 23.1473 29 22.266 29ZM15.866 21C15.866 19.233 14.4315 17.8 12.666 17.8C10.8974 17.8 9.46602 19.233 9.46602 21C9.46602 22.767 10.8974 24.2 12.666 24.2C14.4318 24.2 15.866 22.767 15.866 21ZM11.066 21C11.066 20.1171 11.7847 19.4 12.666 19.4C13.5473 19.4 14.266 20.1171 14.266 21C14.266 21.8829 13.5473 22.6 12.666 22.6C11.7847 22.6 11.066 21.8829 11.066 21ZM17.466 5C17.466 5 4.66602 13 4.66602 24.2C4.66602 31.2688 10.3972 37 17.466 37C24.5348 37 30.266 31.2688 30.266 24.2C30.266 13 17.466 5 17.466 5ZM17.466 35.4C11.291 35.4 6.26602 30.375 6.26602 24.2C6.26602 15.6406 14.7223 8.89856 17.4676 6.936C20.2129 8.89376 28.666 15.6173 28.666 24.2C28.666 30.375 23.6411 35.4 17.466 35.4ZM22.8318 19.9658L13.2318 29.5658L12.1006 28.4346L21.7006 18.8346L22.8318 19.9658Z"
                                    fill="black"
                                    stroke="black"
                                    strokeWidth="0.2"
                                  />
                                </g>
                                <g clip-path="url(#clip2_1986_64775)">
                                  <path
                                    d="M49.7143 34.987H46.2857C46.1715 34.987 46.1017 35.0794 46.0646 35.1455C46.022 35.2214 45.988 35.323 45.9611 35.438C45.9069 35.67 45.875 35.9856 45.875 36.3342C45.875 36.6828 45.9069 36.9984 45.9611 37.2304C45.988 37.3454 46.022 37.447 46.0646 37.5229C46.1017 37.589 46.1715 37.6814 46.2857 37.6814H49.7143C49.8285 37.6814 49.8983 37.589 49.9354 37.5229C49.978 37.447 50.012 37.3454 50.0389 37.2304C50.0931 36.9984 50.125 36.6828 50.125 36.3342C50.125 35.9856 50.0931 35.67 50.0389 35.438C50.012 35.323 49.978 35.2214 49.9354 35.1455C49.8983 35.0794 49.8285 34.987 49.7143 34.987Z"
                                    fill="black"
                                    stroke="black"
                                    strokeWidth="0.25"
                                  />
                                  <path
                                    d="M49.7143 32.5417H46.2857C46.1295 32.5417 46.0265 32.6694 45.9696 32.7909C45.9087 32.9213 45.875 33.0931 45.875 33.2778C45.875 33.4624 45.9087 33.6342 45.9696 33.7646C46.0265 33.8862 46.1295 34.0139 46.2857 34.0139H49.7143C49.8705 34.0139 49.9735 33.8862 50.0304 33.7646C50.0913 33.6342 50.125 33.4624 50.125 33.2778C50.125 33.0931 50.0913 32.9213 50.0304 32.7909C49.9735 32.6694 49.8705 32.5417 49.7143 32.5417Z"
                                    fill="black"
                                    stroke="black"
                                    strokeWidth="0.25"
                                  />
                                  <path
                                    d="M49.7143 30.0964H46.2857C46.1295 30.0964 46.0265 30.224 45.9696 30.3456C45.9087 30.476 45.875 30.6478 45.875 30.8325C45.875 31.0171 45.9087 31.1889 45.9696 31.3193C46.0265 31.4409 46.1295 31.5686 46.2857 31.5686H49.7143C49.8705 31.5686 49.9735 31.4409 50.0304 31.3193C50.0913 31.1889 50.125 31.0171 50.125 30.8325C50.125 30.6478 50.0913 30.476 50.0304 30.3456C49.9735 30.224 49.8705 30.0964 49.7143 30.0964Z"
                                    fill="black"
                                    stroke="black"
                                    strokeWidth="0.25"
                                  />
                                  <path
                                    d="M49.7143 27.6536H46.2857C46.1295 27.6536 46.0265 27.7813 45.9696 27.9029C45.9087 28.0333 45.875 28.2051 45.875 28.3898C45.875 28.5744 45.9087 28.7462 45.9696 28.8766C46.0265 28.9982 46.1295 29.1259 46.2857 29.1259H49.7143C49.8705 29.1259 49.9735 28.9982 50.0304 28.8766C50.0913 28.7462 50.125 28.5744 50.125 28.3898C50.125 28.2051 50.0913 28.0333 50.0304 27.9029C49.9735 27.7813 49.8705 27.6536 49.7143 27.6536Z"
                                    fill="black"
                                    stroke="black"
                                    strokeWidth="0.25"
                                  />
                                  <path
                                    d="M46.2857 26.6806H49.7143C49.8705 26.6806 49.9735 26.5529 50.0304 26.4313C50.0913 26.3009 50.125 26.1291 50.125 25.9444C50.125 25.7598 50.0913 25.588 50.0304 25.4576C49.9735 25.336 49.8705 25.2083 49.7143 25.2083H46.2857C46.1295 25.2083 46.0265 25.336 45.9696 25.4576C45.9087 25.588 45.875 25.7598 45.875 25.9444C45.875 26.1291 45.9087 26.3009 45.9696 26.4313C46.0265 26.5529 46.1295 26.6806 46.2857 26.6806Z"
                                    fill="black"
                                    stroke="black"
                                    strokeWidth="0.25"
                                  />
                                  <path
                                    d="M44.791 44.2933C44.791 42.1757 43.169 40.4367 41.0987 40.2192V24.4175C41.0987 24.1766 40.9065 23.987 40.666 23.987C40.4255 23.987 40.2333 24.1766 40.2333 24.4175V40.2192C38.163 40.4367 36.541 42.1757 36.541 44.2933C36.541 46.551 38.3947 48.3906 40.666 48.3906C42.9373 48.3906 44.791 46.551 44.791 44.2933ZM40.666 47.5294C38.8696 47.5294 37.4064 46.0751 37.4064 44.2933C37.4064 42.5115 38.8696 41.0572 40.666 41.0572C42.4624 41.0572 43.9256 42.5115 43.9256 44.2933C43.9256 46.0751 42.4624 47.5294 40.666 47.5294Z"
                                    fill="black"
                                    stroke="black"
                                    strokeWidth="0.25"
                                  />
                                  <path
                                    d="M46.551 40.8548L46.5507 40.8542C46.0128 39.9218 45.262 39.1267 44.3674 38.5388V25.3333C44.3674 23.2425 42.6821 21.5417 40.6061 21.5417C38.53 21.5417 36.8447 23.2425 36.8447 25.3333V38.62C34.9828 39.8997 33.875 41.9976 33.875 44.2778C33.875 48.0553 36.9179 51.125 40.6667 51.125C44.4155 51.125 47.4583 48.0553 47.4583 44.2778C47.4583 43.0766 47.1436 41.8941 46.551 40.8548ZM37.5035 39.2132L37.5044 39.2127C37.6243 39.1349 37.7008 38.9979 37.7008 38.8511V25.3333C37.7008 23.7147 39.0033 22.4028 40.6061 22.4028C42.2088 22.4028 43.5114 23.7147 43.5114 25.3333V38.7717C43.5114 38.924 43.5876 39.063 43.717 39.1413C45.522 40.2369 46.6023 42.1519 46.6023 44.2778C46.6023 47.5769 43.936 50.2639 40.6667 50.2639C37.3973 50.2639 34.7311 47.5769 34.7311 44.2778C34.7311 42.2119 35.764 40.3207 37.5035 39.2132Z"
                                    fill="black"
                                    stroke="black"
                                    strokeWidth="0.25"
                                  />
                                </g>
                              </g>
                              <defs>
                                <clipPath id="clip0_1986_64775">
                                  <rect width="56" height="56" fill="white" />
                                </clipPath>
                                <clipPath id="clip1_1986_64775">
                                  <rect
                                    width="32"
                                    height="32"
                                    fill="white"
                                    transform="translate(2 5)"
                                  />
                                </clipPath>
                                <clipPath id="clip2_1986_64775">
                                  <rect
                                    width="32"
                                    height="32"
                                    fill="white"
                                    transform="translate(26 19)"
                                  />
                                </clipPath>
                              </defs>
                            </svg>