<svg width="92" height="93" viewBox="0 0 92 93" fill="none" xmlns="http://www.w3.org/2000/svg">
<g clip-path="url(#clip0_2306_1346)">
<path d="M75.027 4.47559H20.8045C17.0574 4.47559 14.0195 7.52309 14.0195 11.2606V85.5697C14.0195 89.3168 17.067 92.3548 20.8045 92.3548H75.0174C78.7645 92.3548 81.8025 89.3073 81.8025 85.5697V11.2606C81.8025 7.5135 78.755 4.47559 75.0174 4.47559H75.027ZM78.985 85.5697C78.985 87.7452 77.212 89.5277 75.027 89.5277H20.8045C18.6291 89.5277 16.8466 87.7548 16.8466 85.5697V11.2606C16.8466 9.08517 18.6195 7.30267 20.8045 7.30267H75.0174C77.2024 7.30267 78.9754 9.07559 78.9754 11.2606V85.5697H78.985ZM55.8316 84.8414C55.8316 85.6273 55.1991 86.2598 54.4133 86.2598H41.4279C40.642 86.2598 40.0095 85.6273 40.0095 84.8414C40.0095 84.0556 40.642 83.4231 41.4279 83.4231H54.4133C55.1991 83.4231 55.8316 84.0556 55.8316 84.8414ZM40.0095 11.9889C40.0095 11.2031 40.642 10.5706 41.4279 10.5706H54.4133C55.1991 10.5706 55.8316 11.2031 55.8316 11.9889C55.8316 12.7748 55.1991 13.4073 54.4133 13.4073H41.4279C40.642 13.4073 40.0095 12.7748 40.0095 11.9889ZM71.395 58.286V70.4664C71.395 71.2523 70.7624 71.8848 69.9766 71.8848H57.7962C57.0104 71.8848 56.3779 71.2523 56.3779 70.4664C56.3779 69.6806 57.0104 69.0481 57.7962 69.0481H68.5583V58.286C68.5583 57.5002 69.1908 56.8677 69.9766 56.8677C70.7624 56.8677 71.395 57.5002 71.395 58.286ZM24.4462 38.5443V26.3639C24.4462 25.5781 25.0787 24.9456 25.8645 24.9456H38.0449C38.8308 24.9456 39.4633 25.5781 39.4633 26.3639C39.4633 27.1498 38.8308 27.7823 38.0449 27.7823H27.2829V38.5443C27.2829 39.3302 26.6504 39.9627 25.8645 39.9627C25.0787 39.9627 24.4462 39.3302 24.4462 38.5443ZM39.4633 70.476C39.4633 71.2618 38.8308 71.8943 38.0449 71.8943H25.8645C25.0787 71.8943 24.4462 71.2618 24.4462 70.476V58.2956C24.4462 57.5098 25.0787 56.8773 25.8645 56.8773C26.6504 56.8773 27.2829 57.5098 27.2829 58.2956V69.0577H38.0449C38.8308 69.0577 39.4633 69.6902 39.4633 70.476ZM71.3854 26.3639V38.5443C71.3854 39.3302 70.7529 39.9627 69.967 39.9627C69.1812 39.9627 68.5487 39.3302 68.5487 38.5443V27.7823H57.7866C57.0008 27.7823 56.3683 27.1498 56.3683 26.3639C56.3683 25.5781 57.0008 24.9456 57.7866 24.9456H69.967C70.7529 24.9456 71.3854 25.5781 71.3854 26.3639ZM45.0887 34.8164C45.0887 33.676 44.1591 32.756 43.0283 32.756H34.1541C33.0137 32.756 32.0937 33.6856 32.0937 34.8164V43.6906C32.0937 44.831 33.0233 45.751 34.1541 45.751H43.0283C44.1687 45.751 45.0887 44.8214 45.0887 43.6906V34.8164ZM42.252 42.9143H34.9208V35.5831H42.252V42.9143ZM32.0841 62.0235C32.0841 63.1639 33.0137 64.0839 34.1445 64.0839H43.0187C44.1591 64.0839 45.0791 63.1543 45.0791 62.0235V53.1493C45.0791 52.0089 44.1495 51.0889 43.0187 51.0889H34.1445C33.0041 51.0889 32.0841 52.0185 32.0841 53.1493V62.0235ZM34.9208 53.9256H42.252V61.2568H34.9208V53.9256ZM60.5849 44.6393V35.5831H57.5758C56.79 35.5831 56.1574 34.9506 56.1574 34.1648C56.1574 33.3789 56.79 32.7464 57.5758 32.7464H61.3612C62.5016 32.7464 63.4216 33.676 63.4216 34.8068V44.6298C63.4216 45.4156 62.7891 46.0481 62.0033 46.0481C61.2174 46.0481 60.5849 45.4156 60.5849 44.6298V44.6393ZM52.487 64.0839H61.3612C62.5016 64.0839 63.4216 63.1543 63.4216 62.0235V53.1493C63.4216 52.0089 62.492 51.0889 61.3612 51.0889H52.487C51.3466 51.0889 50.4266 52.0185 50.4266 53.1493V62.0235C50.4266 63.1639 51.3562 64.0839 52.487 64.0839ZM53.2633 53.916H60.5945V61.2473H53.2633V53.916ZM49.0658 47.5718C47.9254 47.5718 47.0054 46.6423 47.0054 45.5114V41.3043C47.0054 40.5185 47.6379 39.886 48.4237 39.886H53.4933C54.2791 39.886 54.9116 40.5185 54.9116 41.3043C54.9116 42.0902 54.2791 42.7227 53.4933 42.7227H49.842V44.7448H53.4549C54.2408 44.7448 54.8733 45.3773 54.8733 46.1631C54.8733 46.9489 54.2408 47.5814 53.4549 47.5814H49.0658V47.5718ZM54.9116 34.8068V37.0685C54.9116 37.8543 54.2791 38.4868 53.4933 38.4868C52.7074 38.4868 52.0749 37.8543 52.0749 37.0685V35.5735H48.4237C47.6379 35.5735 47.0054 34.941 47.0054 34.1552C47.0054 33.3693 47.6379 32.7368 48.4237 32.7368H52.8512C53.9916 32.7368 54.9116 33.6664 54.9116 34.7973V34.8068ZM56.167 40.2693V37.5764C56.167 36.7906 56.7995 36.1581 57.5854 36.1581C58.3712 36.1581 59.0037 36.7906 59.0037 37.5764V40.2693C59.0037 41.0552 58.3712 41.6877 57.5854 41.6877C56.7995 41.6877 56.167 41.0552 56.167 40.2693ZM55.8604 47.8018V43.4127C55.8604 42.6268 56.4929 41.9943 57.2787 41.9943C58.0645 41.9943 58.697 42.6268 58.697 43.4127V47.0256H62.3099C63.0958 47.0256 63.7283 47.6581 63.7283 48.4439C63.7283 49.2298 63.0958 49.8623 62.3099 49.8623H57.9208C56.7804 49.8623 55.8604 48.9327 55.8604 47.8018ZM47.6379 48.5589C48.4237 48.5589 49.0562 49.1914 49.0562 49.9773V62.656C49.0562 63.4418 48.4237 64.0743 47.6379 64.0743C46.852 64.0743 46.2195 63.4418 46.2195 62.656V49.9773C46.2195 49.1914 46.852 48.5589 47.6379 48.5589ZM54.4612 47.9168C55.247 47.9168 55.8795 48.5493 55.8795 49.3352C55.8795 50.121 55.247 50.7535 54.4612 50.7535H52.5062C51.7204 50.7535 51.0879 50.121 51.0879 49.3352C51.0879 48.5493 51.7204 47.9168 52.5062 47.9168H54.4612ZM41.2266 49.8335C40.4408 49.8335 39.8083 49.201 39.8083 48.4152C39.8083 47.6293 40.4408 46.9968 41.2266 46.9968H43.1816C43.9674 46.9968 44.5999 47.6293 44.5999 48.4152C44.5999 49.201 43.9674 49.8335 43.1816 49.8335H41.2266ZM33.5024 49.8335C32.7166 49.8335 32.0841 49.201 32.0841 48.4152C32.0841 47.6293 32.7166 46.9968 33.5024 46.9968H37.8724C38.6583 46.9968 39.2908 47.6293 39.2908 48.4152C39.2908 49.201 38.6583 49.8335 37.8724 49.8335H33.5024ZM40.9774 57.5864C40.9774 58.3723 40.3449 59.0048 39.5591 59.0048H37.6041C36.8183 59.0048 36.1858 58.3723 36.1858 57.5864C36.1858 56.8006 36.8183 56.1681 37.6041 56.1681H39.5591C40.3449 56.1681 40.9774 56.8006 40.9774 57.5864ZM59.3104 57.5864C59.3104 58.3723 58.6779 59.0048 57.892 59.0048H55.937C55.1512 59.0048 54.5187 58.3723 54.5187 57.5864C54.5187 56.8006 55.1512 56.1681 55.937 56.1681H57.892C58.6779 56.1681 59.3104 56.8006 59.3104 57.5864ZM36.1858 39.2535C36.1858 38.4677 36.8183 37.8352 37.6041 37.8352H39.5591C40.3449 37.8352 40.9774 38.4677 40.9774 39.2535C40.9774 40.0393 40.3449 40.6718 39.5591 40.6718H37.6041C36.8183 40.6718 36.1858 40.0393 36.1858 39.2535Z" fill="#565E64"/>
</g>
<defs>
<clipPath id="clip0_2306_1346">
<rect width="92" height="92" fill="white" transform="translate(0 0.5)"/>
</clipPath>
</defs>
</svg>
