<?xml version="1.0" encoding="utf-8"?>
<!-- Generator: Adobe Illustrator 26.0.1, SVG Export Plug-In . SVG Version: 6.00 Build 0)  -->
<svg version="1.1" id="Layer_1" xmlns="http://www.w3.org/2000/svg" xmlns:xlink="http://www.w3.org/1999/xlink" x="0px" y="0px"
	 viewBox="0 0 1000 1000" style="enable-background:new 0 0 1000 1000;" xml:space="preserve">
<style type="text/css">
	.st0{fill:#FFFFFF;}
</style>
<g>
	<path d="M40,815c2.8-9.8,9.6-17.1,16.2-24.2c22.1-23.8,44.1-47.6,66.9-70.7c40.3-40.7,80.9-81.1,121.7-121.3
		c21.8-21.5,43.9-42.7,68.5-61.2c21.6-16.2,46.1-24.6,72.4-28.7c11.5-1.8,23-3.8,34.3-6.2c16.4-3.4,29.6-12.7,41.2-24.1
		c23.5-22.9,46.6-46.2,69.8-69.4c4.8-4.8,9.7-9.6,14.1-13.9c20.7,20.5,41.4,41.1,62.3,61.9c-15.2,15.6-31,31.6-46.5,47.8
		c-11.5,12-22.6,24.4-34,36.5c-17.4,18.4-26.7,40.3-30,65.4c-3.1,23.6-7.2,47.3-21.1,67.4c-11,16-22.8,31.7-36.1,45.8
		c-32.1,34.2-65.1,67.7-98.1,101.1c-26,26.3-52.4,52.2-79.1,77.7c-16.1,15.4-33.3,29.6-50,44.4c-9.6,8.5-21.1,12.3-33.5,13.8
		c-1.3,0.2-2.6,0.6-3.9,0.9c-3.3,0-6.7,0-10,0c-1.4-0.3-3-0.5-4.3-1c-6.7-2.6-14.5-4-19.9-8.3c-16.1-12.8-32-26.1-46.8-40.4
		C70.1,885.3,47,861.4,40,827C40,823,40,819,40,815z M294,804c8.3-0.8,13.3-4.2,17.6-8.4c15.1-14.8,30.1-29.6,45.1-44.6
		c10.1-10.1,10.3-17.2,1.3-28.2c-0.5-0.6-1.1-1.3-1.6-1.9c-23-23.2-45.8-46.4-69-69.4c-4.3-4.3-9.5-7.8-14.5-11.3
		c-4.4-3.1-9.2-2.5-13.6,0.3c-2.4,1.5-4.7,3.2-6.7,5.2c-11,10.9-22,21.8-32.9,32.8c-5.7,5.8-11.5,11.6-16.5,18
		c-5.8,7.4-5.6,13.4-0.2,21c2.6,3.7,5.3,7.3,8.4,10.5c15.1,15.5,30.3,30.9,45.7,46.1c8.3,8.2,16.7,16.2,25.5,23.8
		C286.3,800.9,291.1,802.5,294,804z"/>
	<path d="M960,193.9c-3.3,6.8-5.7,14.2-9.9,20.4c-16,23.5-43.4,28.8-67.9,13.3c-5.7-3.6-11-8.2-15.9-12.8c-9.5-9.1-18.6-18.5-28-28
		c-8.7,8.2-17,16.1-25.4,23.9c-2.2,2-4.6,3.9-6.8,5.8c-6,5.2-12.6,6.7-20.4,4.1c-3-1-6.3-0.8-9.5-1.1c0.7,3.1,1.4,6.2,2,9.3
		c1.3,5.8,3.4,11.5,3.6,17.3c0.4,8.1-6,13.5-14.1,12.2c-4.8-0.8-9.4-3.1-14.2-4.3c-2.2-0.6-4.7-0.2-7-0.3c0.1,2.2-0.1,4.6,0.5,6.7
		c1,3.5,2.9,6.7,3.8,10.2c3,11.4-3.6,19.2-15.4,18c-4.1-0.4-8.2-1.5-12.1-2.6c-7-2-10.8,0.7-10.4,8c0.4,6.9,3.5,12.7,8,17.9
		c6.6,7.6,7.3,10.7,0.4,18.1c-14.8,15.8-30.1,31.1-45.7,46.1c-6.2,5.9-10.9,5.8-17.2-0.1c-10.8-10.1-21.3-20.6-31.5-31.4
		c-5.8-6.2-6.1-11.2-0.2-17.2c15.5-16,31.5-31.6,47.8-46.7c6.3-5.8,9-5,15.7,0.9c2.8,2.5,4.8,2.4,6.4-1.3c4.4-10.5,8.7-12.9,20-10.8
		c4.7,0.9,9.4,2.1,14.1,3.1c1.2,0.3,2.5,0.4,4.7,0.7c-1.1-3.9-2.2-7.1-3-10.4c-1-4.3-2.5-8.7-2.7-13.1c-0.4-8,6.1-13.8,14.1-12.8
		c4.7,0.6,9.3,2.2,14,3.3c1.6,0.4,3.3,1,4.9,0.8c1.6-0.2,3.2-1.2,4.8-1.8c-0.8-1.4-1.2-3.2-2.3-4c-5.3-3.8-6.1-8.8-4.6-14.6
		c2.5-10.5,8.8-16.1,19.4-17.7c1.5-0.2,3.4-0.9,4.4-2c10.3-11.5,20.4-23.2,30.6-34.8c0.2-0.2,0.4-0.5,1.2-1.9
		c-10.1-9.8-20.4-19.6-30.5-29.7c-8.6-8.6-14.9-18.7-17.8-30.7c-4.7-19.7,3.3-40,20.5-50.7c5-3.2,10.6-5.4,16-8
		c4.8-2.4,9.1-1.7,13.2,2c8.6,7.7,17.6,14.8,26,22.6c36.3,33.9,71.5,68.8,104.4,106c4.3,4.8,7.9,10.2,11.9,15.4
		C960,191.9,960,192.9,960,193.9z"/>
	<path class="st0" d="M40,827c7,34.4,30.1,58.3,53.9,81.3c14.8,14.3,30.6,27.6,46.8,40.4c5.4,4.3,13.2,5.7,19.9,8.3
		c1.4,0.5,2.9,0.7,4.3,1c-41.7,0-83.3,0-125,0C40,914.3,40,870.7,40,827z"/>
</g>
</svg>
