<svg width="86" height="86" viewBox="0 0 86 86" fill="none" xmlns="http://www.w3.org/2000/svg">
<path d="M53.7168 60.5878H32.2793C28.2674 60.5878 25.0059 57.3218 25.0059 53.3045V31.8378C25.0059 27.8205 28.2674 24.5545 32.2793 24.5545H53.7168C57.7287 24.5545 60.9902 27.8205 60.9902 31.8378V53.3045C60.9902 57.3218 57.7287 60.5878 53.7168 60.5878ZM32.2793 26.8545C29.5384 26.8545 27.3027 29.0932 27.3027 31.8378V53.3045C27.3027 56.0492 29.5384 58.2878 32.2793 58.2878H53.7168C56.4577 58.2878 58.6934 56.0492 58.6934 53.3045V31.8378C58.6934 29.0932 56.4577 26.8545 53.7168 26.8545H32.2793ZM53.7168 54.4545H32.2793C31.6515 54.4545 31.1309 53.9332 31.1309 53.3045V31.8378C31.1309 31.2092 31.6515 30.6878 32.2793 30.6878H53.7168C54.3446 30.6878 54.8652 31.2092 54.8652 31.8378V53.3045C54.8652 53.9332 54.3446 54.4545 53.7168 54.4545ZM33.4277 52.1545H52.5684V32.9878H33.4277V52.1545ZM42.998 48.3212C39.8284 48.3212 37.2559 45.7452 37.2559 42.5712C37.2559 39.3972 39.8284 36.8212 42.998 36.8212C46.1677 36.8212 48.7402 39.3972 48.7402 42.5712C48.7402 45.7452 46.1677 48.3212 42.998 48.3212ZM42.998 39.1212C41.0993 39.1212 39.5527 40.6698 39.5527 42.5712C39.5527 44.4725 41.0993 46.0212 42.998 46.0212C44.8968 46.0212 46.4434 44.4725 46.4434 42.5712C46.4434 40.6698 44.8968 39.1212 42.998 39.1212ZM60.0409 8.7305C60.4849 8.28583 60.4849 7.54983 60.0409 7.10516C55.4777 2.53583 49.4293 0.0211639 42.998 0.0211639C36.5668 0.0211639 30.5184 2.53583 25.9552 7.10516C25.5112 7.54983 25.5112 8.28583 25.9552 8.7305C26.3993 9.17516 27.1343 9.17516 27.5784 8.7305C31.7127 4.5905 37.1793 2.32116 42.998 2.32116C48.8168 2.32116 54.2834 4.5905 58.4177 8.7305C58.6474 8.9605 58.9384 9.06783 59.2293 9.06783C59.5202 9.06783 59.8112 8.9605 60.0409 8.7305ZM55.7227 13.0545C56.1668 12.6098 56.1668 11.8738 55.7227 11.4292C52.308 8.02516 47.7909 6.1545 42.998 6.1545C38.2052 6.1545 33.688 8.02516 30.2734 11.4292C29.8293 11.8738 29.8293 12.6098 30.2734 13.0545C30.7174 13.4992 31.4524 13.4992 31.8965 13.0545C34.8824 10.0798 38.8177 8.4545 42.998 8.4545C47.1784 8.4545 51.129 10.0952 54.0996 13.0545C54.3293 13.2845 54.6202 13.3918 54.9112 13.3918C55.2021 13.3918 55.493 13.2845 55.7227 13.0545ZM36.2299 17.3938C38.0368 15.5845 40.4409 14.5878 42.998 14.5878C45.5552 14.5878 47.9593 15.5845 49.7662 17.3938C50.2102 17.8385 50.9452 17.8385 51.3893 17.3938C51.8334 16.9492 51.8334 16.2132 51.3893 15.7685C49.1537 13.5298 46.1677 12.2878 42.998 12.2878C39.8284 12.2878 36.8424 13.5298 34.6068 15.7685C34.1627 16.2132 34.1627 16.9492 34.6068 17.3938C34.8365 17.6238 35.1274 17.7312 35.4184 17.7312C35.7093 17.7312 36.0002 17.6238 36.2299 17.3938ZM60.0409 78.0372C60.4849 77.5925 60.4849 76.8565 60.0409 76.4118C59.5968 75.9672 58.8618 75.9672 58.4177 76.4118C54.2834 80.5518 48.8168 82.8212 42.998 82.8212C37.1793 82.8212 31.7127 80.5518 27.5784 76.4118C27.1343 75.9672 26.3993 75.9672 25.9552 76.4118C25.5112 76.8565 25.5112 77.5925 25.9552 78.0372C30.5184 82.6065 36.5668 85.1212 42.998 85.1212C49.4293 85.1212 55.4777 82.6065 60.0409 78.0372ZM55.7227 73.7132C56.1668 73.2685 56.1668 72.5325 55.7227 72.0878C55.2787 71.6432 54.5437 71.6432 54.0996 72.0878C51.1137 75.0625 47.1784 76.6878 42.998 76.6878C38.8177 76.6878 34.8671 75.0472 31.8965 72.0878C31.4524 71.6432 30.7174 71.6432 30.2734 72.0878C29.8293 72.5325 29.8293 73.2685 30.2734 73.7132C33.688 77.1172 38.2052 78.9878 42.998 78.9878C47.7909 78.9878 52.308 77.1172 55.7227 73.7132ZM51.3893 69.3738C51.8334 68.9292 51.8334 68.1932 51.3893 67.7485C50.9452 67.3038 50.2102 67.3038 49.7662 67.7485C47.9593 69.5578 45.5552 70.5545 42.998 70.5545C40.4409 70.5545 38.0368 69.5578 36.2299 67.7485C35.7859 67.3038 35.0509 67.3038 34.6068 67.7485C34.1627 68.1932 34.1627 68.9292 34.6068 69.3738C36.8424 71.6125 39.8284 72.8545 42.998 72.8545C46.1677 72.8545 49.1537 71.6125 51.3893 69.3738ZM78.4159 59.6372C82.979 55.0678 85.4902 49.0112 85.4902 42.5712C85.4902 36.1312 82.979 30.0745 78.4159 25.5052C77.9718 25.0605 77.2368 25.0605 76.7927 25.5052C76.3487 25.9498 76.3487 26.6858 76.7927 27.1305C80.9271 31.2705 83.1934 36.7445 83.1934 42.5712C83.1934 48.3978 80.9271 53.8718 76.7927 58.0118C76.3487 58.4565 76.3487 59.1925 76.7927 59.6372C77.0224 59.8672 77.3134 59.9745 77.6043 59.9745C77.8952 59.9745 78.1862 59.8672 78.4159 59.6372ZM74.0977 55.3132C77.4971 51.8938 79.3652 47.3705 79.3652 42.5712C79.3652 37.7718 77.4971 33.2485 74.0977 29.8292C73.6537 29.3845 72.9187 29.3845 72.4746 29.8292C72.0305 30.2738 72.0305 31.0098 72.4746 31.4545C75.4452 34.4445 77.0684 38.3852 77.0684 42.5712C77.0684 46.7572 75.4299 50.6978 72.4746 53.6878C72.0305 54.1325 72.0305 54.8685 72.4746 55.3132C72.7043 55.5432 72.9952 55.6505 73.2862 55.6505C73.5771 55.6505 73.868 55.5432 74.0977 55.3132ZM69.7643 50.9738C71.9999 48.7352 73.2402 45.7452 73.2402 42.5712C73.2402 39.3972 71.9999 36.4072 69.7643 34.1685C69.3202 33.7238 68.5852 33.7238 68.1412 34.1685C67.6971 34.6132 67.6971 35.3492 68.1412 35.7938C69.948 37.6032 70.9434 40.0105 70.9434 42.5712C70.9434 45.1318 69.948 47.5392 68.1412 49.3485C67.6971 49.7932 67.6971 50.5292 68.1412 50.9738C68.3709 51.2038 68.6618 51.3112 68.9527 51.3112C69.2437 51.3112 69.5346 51.2038 69.7643 50.9738ZM9.20336 59.6372C9.64742 59.1925 9.64742 58.4565 9.20336 58.0118C5.06898 53.8718 2.80273 48.3978 2.80273 42.5712C2.80273 36.7445 5.06898 31.2705 9.20336 27.1305C9.64742 26.6858 9.64742 25.9498 9.20336 25.5052C8.7593 25.0605 8.0243 25.0605 7.58023 25.5052C3.01711 30.0745 0.505859 36.1312 0.505859 42.5712C0.505859 49.0112 3.01711 55.0678 7.58023 59.6372C7.80992 59.8672 8.10086 59.9745 8.3918 59.9745C8.68273 59.9745 8.97367 59.8672 9.20336 59.6372ZM13.5215 55.3132C13.9655 54.8685 13.9655 54.1325 13.5215 53.6878C10.5509 50.6978 8.92773 46.7572 8.92773 42.5712C8.92773 38.3852 10.5662 34.4292 13.5215 31.4545C13.9655 31.0098 13.9655 30.2738 13.5215 29.8292C13.0774 29.3845 12.3424 29.3845 11.8984 29.8292C8.49898 33.2485 6.63086 37.7718 6.63086 42.5712C6.63086 47.3705 8.49898 51.8938 11.8984 55.3132C12.128 55.5432 12.419 55.6505 12.7099 55.6505C13.0009 55.6505 13.2918 55.5432 13.5215 55.3132ZM17.8549 50.9738C18.299 50.5292 18.299 49.7932 17.8549 49.3485C16.048 47.5392 15.0527 45.1318 15.0527 42.5712C15.0527 40.0105 16.048 37.6032 17.8549 35.7938C18.299 35.3492 18.299 34.6132 17.8549 34.1685C17.4109 33.7238 16.6759 33.7238 16.2318 34.1685C13.9962 36.4072 12.7559 39.3972 12.7559 42.5712C12.7559 45.7452 13.9962 48.7352 16.2318 50.9738C16.4615 51.2038 16.7524 51.3112 17.0434 51.3112C17.3343 51.3112 17.6252 51.2038 17.8549 50.9738Z" fill="black"/>
</svg>
