<svg width="68" height="89" viewBox="0 0 68 89" fill="none" xmlns="http://www.w3.org/2000/svg">
<path d="M61.027 0.475586H6.80453C3.05745 0.475586 0.0195312 3.52309 0.0195312 7.26059V81.5697C0.0195312 85.3168 3.06703 88.3548 6.80453 88.3548H61.0174C64.7645 88.3548 67.8025 85.3073 67.8025 81.5697V7.26059C67.8025 3.5135 64.755 0.475586 61.0174 0.475586H61.027ZM64.985 81.5697C64.985 83.7452 63.212 85.5277 61.027 85.5277H6.80453C4.62911 85.5277 2.84661 83.7548 2.84661 81.5697V7.26059C2.84661 5.08517 4.61953 3.30267 6.80453 3.30267H61.0174C63.2024 3.30267 64.9754 5.07559 64.9754 7.26059V81.5697H64.985ZM41.8316 80.8414C41.8316 81.6273 41.1991 82.2598 40.4133 82.2598H27.4279C26.642 82.2598 26.0095 81.6273 26.0095 80.8414C26.0095 80.0556 26.642 79.4231 27.4279 79.4231H40.4133C41.1991 79.4231 41.8316 80.0556 41.8316 80.8414ZM26.0095 7.98892C26.0095 7.20309 26.642 6.57059 27.4279 6.57059H40.4133C41.1991 6.57059 41.8316 7.20309 41.8316 7.98892C41.8316 8.77475 41.1991 9.40725 40.4133 9.40725H27.4279C26.642 9.40725 26.0095 8.77475 26.0095 7.98892ZM57.395 54.286V66.4664C57.395 67.2523 56.7624 67.8848 55.9766 67.8848H43.7962C43.0104 67.8848 42.3779 67.2523 42.3779 66.4664C42.3779 65.6806 43.0104 65.0481 43.7962 65.0481H54.5583V54.286C54.5583 53.5002 55.1908 52.8677 55.9766 52.8677C56.7624 52.8677 57.395 53.5002 57.395 54.286ZM10.4462 34.5443V22.3639C10.4462 21.5781 11.0787 20.9456 11.8645 20.9456H24.0449C24.8308 20.9456 25.4633 21.5781 25.4633 22.3639C25.4633 23.1498 24.8308 23.7823 24.0449 23.7823H13.2829V34.5443C13.2829 35.3302 12.6504 35.9627 11.8645 35.9627C11.0787 35.9627 10.4462 35.3302 10.4462 34.5443ZM25.4633 66.476C25.4633 67.2618 24.8308 67.8943 24.0449 67.8943H11.8645C11.0787 67.8943 10.4462 67.2618 10.4462 66.476V54.2956C10.4462 53.5098 11.0787 52.8773 11.8645 52.8773C12.6504 52.8773 13.2829 53.5098 13.2829 54.2956V65.0577H24.0449C24.8308 65.0577 25.4633 65.6902 25.4633 66.476ZM57.3854 22.3639V34.5443C57.3854 35.3302 56.7529 35.9627 55.967 35.9627C55.1812 35.9627 54.5487 35.3302 54.5487 34.5443V23.7823H43.7866C43.0008 23.7823 42.3683 23.1498 42.3683 22.3639C42.3683 21.5781 43.0008 20.9456 43.7866 20.9456H55.967C56.7529 20.9456 57.3854 21.5781 57.3854 22.3639ZM31.0887 30.8164C31.0887 29.676 30.1591 28.756 29.0283 28.756H20.1541C19.0137 28.756 18.0937 29.6856 18.0937 30.8164V39.6906C18.0937 40.831 19.0233 41.751 20.1541 41.751H29.0283C30.1687 41.751 31.0887 40.8214 31.0887 39.6906V30.8164ZM28.252 38.9143H20.9208V31.5831H28.252V38.9143ZM18.0841 58.0235C18.0841 59.1639 19.0137 60.0839 20.1445 60.0839H29.0187C30.1591 60.0839 31.0791 59.1543 31.0791 58.0235V49.1493C31.0791 48.0089 30.1495 47.0889 29.0187 47.0889H20.1445C19.0041 47.0889 18.0841 48.0185 18.0841 49.1493V58.0235ZM20.9208 49.9256H28.252V57.2568H20.9208V49.9256ZM46.5849 40.6393V31.5831H43.5758C42.79 31.5831 42.1574 30.9506 42.1574 30.1648C42.1574 29.3789 42.79 28.7464 43.5758 28.7464H47.3612C48.5016 28.7464 49.4216 29.676 49.4216 30.8068V40.6298C49.4216 41.4156 48.7891 42.0481 48.0033 42.0481C47.2174 42.0481 46.5849 41.4156 46.5849 40.6298V40.6393ZM38.487 60.0839H47.3612C48.5016 60.0839 49.4216 59.1543 49.4216 58.0235V49.1493C49.4216 48.0089 48.492 47.0889 47.3612 47.0889H38.487C37.3466 47.0889 36.4266 48.0185 36.4266 49.1493V58.0235C36.4266 59.1639 37.3562 60.0839 38.487 60.0839ZM39.2633 49.916H46.5945V57.2473H39.2633V49.916ZM35.0658 43.5718C33.9254 43.5718 33.0054 42.6423 33.0054 41.5114V37.3043C33.0054 36.5185 33.6379 35.886 34.4237 35.886H39.4933C40.2791 35.886 40.9116 36.5185 40.9116 37.3043C40.9116 38.0902 40.2791 38.7227 39.4933 38.7227H35.842V40.7448H39.4549C40.2408 40.7448 40.8733 41.3773 40.8733 42.1631C40.8733 42.9489 40.2408 43.5814 39.4549 43.5814H35.0658V43.5718ZM40.9116 30.8068V33.0685C40.9116 33.8543 40.2791 34.4868 39.4933 34.4868C38.7074 34.4868 38.0749 33.8543 38.0749 33.0685V31.5735H34.4237C33.6379 31.5735 33.0054 30.941 33.0054 30.1552C33.0054 29.3693 33.6379 28.7368 34.4237 28.7368H38.8512C39.9916 28.7368 40.9116 29.6664 40.9116 30.7973V30.8068ZM42.167 36.2693V33.5764C42.167 32.7906 42.7995 32.1581 43.5854 32.1581C44.3712 32.1581 45.0037 32.7906 45.0037 33.5764V36.2693C45.0037 37.0552 44.3712 37.6877 43.5854 37.6877C42.7995 37.6877 42.167 37.0552 42.167 36.2693ZM41.8604 43.8018V39.4127C41.8604 38.6268 42.4929 37.9943 43.2787 37.9943C44.0645 37.9943 44.697 38.6268 44.697 39.4127V43.0256H48.3099C49.0958 43.0256 49.7283 43.6581 49.7283 44.4439C49.7283 45.2298 49.0958 45.8623 48.3099 45.8623H43.9208C42.7804 45.8623 41.8604 44.9327 41.8604 43.8018ZM33.6379 44.5589C34.4237 44.5589 35.0562 45.1914 35.0562 45.9773V58.656C35.0562 59.4418 34.4237 60.0743 33.6379 60.0743C32.852 60.0743 32.2195 59.4418 32.2195 58.656V45.9773C32.2195 45.1914 32.852 44.5589 33.6379 44.5589ZM40.4612 43.9168C41.247 43.9168 41.8795 44.5493 41.8795 45.3352C41.8795 46.121 41.247 46.7535 40.4612 46.7535H38.5062C37.7204 46.7535 37.0879 46.121 37.0879 45.3352C37.0879 44.5493 37.7204 43.9168 38.5062 43.9168H40.4612ZM27.2266 45.8335C26.4408 45.8335 25.8083 45.201 25.8083 44.4152C25.8083 43.6293 26.4408 42.9968 27.2266 42.9968H29.1816C29.9674 42.9968 30.5999 43.6293 30.5999 44.4152C30.5999 45.201 29.9674 45.8335 29.1816 45.8335H27.2266ZM19.5024 45.8335C18.7166 45.8335 18.0841 45.201 18.0841 44.4152C18.0841 43.6293 18.7166 42.9968 19.5024 42.9968H23.8724C24.6583 42.9968 25.2908 43.6293 25.2908 44.4152C25.2908 45.201 24.6583 45.8335 23.8724 45.8335H19.5024ZM26.9774 53.5864C26.9774 54.3723 26.3449 55.0048 25.5591 55.0048H23.6041C22.8183 55.0048 22.1858 54.3723 22.1858 53.5864C22.1858 52.8006 22.8183 52.1681 23.6041 52.1681H25.5591C26.3449 52.1681 26.9774 52.8006 26.9774 53.5864ZM45.3104 53.5864C45.3104 54.3723 44.6779 55.0048 43.892 55.0048H41.937C41.1512 55.0048 40.5187 54.3723 40.5187 53.5864C40.5187 52.8006 41.1512 52.1681 41.937 52.1681H43.892C44.6779 52.1681 45.3104 52.8006 45.3104 53.5864ZM22.1858 35.2535C22.1858 34.4677 22.8183 33.8352 23.6041 33.8352H25.5591C26.3449 33.8352 26.9774 34.4677 26.9774 35.2535C26.9774 36.0393 26.3449 36.6718 25.5591 36.6718H23.6041C22.8183 36.6718 22.1858 36.0393 22.1858 35.2535Z" fill="#565E64"/>
</svg>
